<?xml version="1.0" encoding="UTF-8" standalone="no"?>
<!-- Created with Inkscape (http://www.inkscape.org/) -->

<svg
   xmlns:dc="http://purl.org/dc/elements/1.1/"
   xmlns:cc="http://creativecommons.org/ns#"
   xmlns:rdf="http://www.w3.org/1999/02/22-rdf-syntax-ns#"
   xmlns:svg="http://www.w3.org/2000/svg"
   xmlns="http://www.w3.org/2000/svg"
   xmlns:sodipodi="http://sodipodi.sourceforge.net/DTD/sodipodi-0.dtd"
   xmlns:inkscape="http://www.inkscape.org/namespaces/inkscape"
   width="18.367374mm"
   height="16.548563mm"
   viewBox="0 0 65.081248 58.63664"
   id="svg4812"
   version="1.1"
   inkscape:version="0.91 r13725"
   sodipodi:docname="module_rotating.svg">
  <defs
     id="defs4814" />
  <sodipodi:namedview
     id="base"
     pagecolor="#ffffff"
     bordercolor="#666666"
     borderopacity="1.0"
     inkscape:pageopacity="0.0"
     inkscape:pageshadow="2"
     inkscape:zoom="5.6"
     inkscape:cx="8.1437123"
     inkscape:cy="18.036937"
     inkscape:document-units="px"
     inkscape:current-layer="layer1"
     showgrid="false"
     fit-margin-top="0"
     fit-margin-left="0"
     fit-margin-right="0"
     fit-margin-bottom="0"
     inkscape:window-width="1920"
     inkscape:window-height="1021"
     inkscape:window-x="0"
     inkscape:window-y="0"
     inkscape:window-maximized="1" />
  <metadata
     id="metadata4817">
    <rdf:RDF>
      <cc:Work
         rdf:about="">
        <dc:format>image/svg+xml</dc:format>
        <dc:type
           rdf:resource="http://purl.org/dc/dcmitype/StillImage" />
        <dc:title></dc:title>
      </cc:Work>
    </rdf:RDF>
  </metadata>
  <g
     inkscape:label="Layer 1"
     inkscape:groupmode="layer"
     id="layer1"
     transform="translate(-418.88795,-251.61575)">
    <g
       id="g172"
       transform="matrix(1.25,0,0,-1.25,438.81545,280.93414)"
       style="fill:#008bff;fill-opacity:1;stroke:#000000;stroke-opacity:1">
      <path
         d="m 0,0 c 0,3.426 -2.777,6.203 -6.203,6.203 -3.426,0 -6.204,-2.777 -6.204,-6.203 0,-3.426 2.778,-6.204 6.204,-6.204 C -2.777,-6.204 0,-3.426 0,0 m -5.405,-9.206 c -0.263,-0.023 -0.529,-0.034 -0.798,-0.034 -5.103,0 -9.239,4.137 -9.239,9.24 0,5.103 4.136,9.239 9.239,9.239 0.436,0 0.866,-0.03 1.286,-0.088 L -4.893,9.144 31.583,4.67 31.602,4.667 C 33.877,4.33 35.623,2.369 35.623,0 c 0,-2.347 -1.712,-4.307 -3.956,-4.671 L -5.38,-9.204 -5.405,-9.206 Z"
         style="fill:#008bff;fill-opacity:1;fill-rule:nonzero;stroke:#000000;stroke-opacity:1"
         id="path174"
         inkscape:connector-curvature="0" />
    </g>
    <g
       id="g184"
       transform="matrix(1.25,0,0,-1.25,464.9755,303.9132)"
       style="fill:#008bff;fill-opacity:1;stroke:#000000;stroke-opacity:1">
      <path
         d="M 0,0 -1.102,0.897 C 0.821,3.572 1.681,5.607 2.681,8.73 L 4.03,8.299 C 2.985,5.033 2.011,2.796 0,0"
         style="fill:#008bff;fill-opacity:1;fill-rule:nonzero;stroke:#000000;stroke-opacity:1"
         id="path186"
         inkscape:connector-curvature="0" />
    </g>
    <g
       id="g188"
       transform="matrix(1.25,0,0,-1.25,460.86707,300.38801)"
       style="fill:#008bff;fill-opacity:1;stroke:#000000;stroke-opacity:1">
      <path
         d="M 0,0 -1.145,-7.116 5.591,-4.55 0,0 Z"
         style="fill:#008bff;fill-opacity:1;fill-rule:nonzero;stroke:#000000;stroke-opacity:1"
         id="path190"
         inkscape:connector-curvature="0" />
    </g>
    <g
       id="g192"
       transform="matrix(1.25,0,0,-1.25,468.151,268.3342)"
       style="fill:#008bff;fill-opacity:1;stroke:#000000;stroke-opacity:1">
      <path
         d="m 0,0 c -0.996,2.966 -1.79,4.873 -3.624,7.422 l 1.098,0.895 C -0.608,5.652 0.302,3.552 1.344,0.451 L 0,0 Z"
         style="fill:#008bff;fill-opacity:1;fill-rule:nonzero;stroke:#000000;stroke-opacity:1"
         id="path194"
         inkscape:connector-curvature="0" />
    </g>
    <g
       id="g196"
       transform="matrix(1.25,0,0,-1.25,460.87382,261.47801)"
       style="fill:#008bff;fill-opacity:1;stroke:#000000;stroke-opacity:1">
      <path
         d="M 0,0 -1.151,7.115 5.587,4.556 0,0 Z"
         style="fill:#008bff;fill-opacity:1;fill-rule:nonzero;stroke:#000000;stroke-opacity:1"
         id="path198"
         inkscape:connector-curvature="0" />
    </g>
  </g>
</svg>
