<?xml version="1.0" encoding="utf-8"?>
<!-- Generator: Adobe Illustrator 21.0.2, SVG Export Plug-In . SVG Version: 6.00 Build 0)  -->
<svg version="1.1" class="grid" preserveAspectRatio="none" xmlns="http://www.w3.org/2000/svg" xmlns:xlink="http://www.w3.org/1999/xlink" x="0px" y="0px"
	 viewBox="0.8 0.9 321.4 459.5" style="enable-background:new 0 0 323.6 461.4;" xml:space="preserve">
<style type="text/css">
	.grid .st0{fill:#BBB;}
	<!-- .grid .st0{fill:#E6E6E6;} -->
</style>
<path class="st0" d="M310.4,460.4H12.6c-6.5,0-11.8-5.3-11.8-11.8V12.7c0-6.5,5.3-11.8,11.8-11.8h297.8c6.5,0,11.8,5.3,11.8,11.8
	v435.8C322.3,455.1,317,460.4,310.4,460.4z M8.6,21.3L8.6,21.3L8.6,21.3L8.6,21.3L8.6,21.3z M8.6,21.3L8.6,21.3L8.6,21.3L8.6,21.3
	L8.6,21.3z M13.3,21.3H8.6V26h4.7V21.3z M38.4,21.3h-4.7V26h4.7V21.3z M58.8,21.3L58.8,21.3L58.8,21.3L58.8,21.3L58.8,21.3z
	 M58.8,21.3L58.8,21.3L58.8,21.3L58.8,21.3L58.8,21.3z M63.5,21.3h-4.7V26h4.7V21.3z M88.6,21.3h-4.7V26h4.7V21.3z M109,21.3
	L109,21.3L109,21.3L109,21.3L109,21.3z M109,21.3L109,21.3L109,21.3L109,21.3L109,21.3z M113.7,21.3H109V26h4.7V21.3z M138.8,21.3
	h-4.7V26h4.7V21.3z M159.2,21.3L159.2,21.3L159.2,21.3L159.2,21.3L159.2,21.3z M159.2,21.3L159.2,21.3L159.2,21.3L159.2,21.3
	L159.2,21.3z M163.9,21.3h-4.7V26h4.7V21.3z M189,21.3h-4.7V26h4.7V21.3z M8.6,46.4L8.6,46.4L8.6,46.4L8.6,46.4L8.6,46.4z M8.6,46.4
	L8.6,46.4L8.6,46.4L8.6,46.4L8.6,46.4z M13.3,46.4H8.6v4.7h4.7V46.4z M38.4,46.4h-4.7v4.7h4.7V46.4z M58.8,46.4L58.8,46.4L58.8,46.4
	L58.8,46.4L58.8,46.4z M58.8,46.4L58.8,46.4L58.8,46.4L58.8,46.4L58.8,46.4z M63.5,46.4h-4.7v4.7h4.7V46.4z M88.6,46.4h-4.7v4.7h4.7
	V46.4z M8.6,71.5L8.6,71.5L8.6,71.5L8.6,71.5L8.6,71.5z M8.6,71.5L8.6,71.5L8.6,71.5L8.6,71.5L8.6,71.5z M13.3,71.5H8.6v4.7h4.7
	V71.5z M38.4,71.5h-4.7v4.7h4.7V71.5z M58.8,71.5L58.8,71.5L58.8,71.5L58.8,71.5L58.8,71.5z M58.8,71.5L58.8,71.5L58.8,71.5
	L58.8,71.5L58.8,71.5z M63.5,71.5h-4.7v4.7h4.7V71.5z M88.6,71.5h-4.7v4.7h4.7V71.5z M8.6,96.6L8.6,96.6L8.6,96.6L8.6,96.6L8.6,96.6
	z M8.6,96.6L8.6,96.6L8.6,96.6L8.6,96.6L8.6,96.6z M13.3,96.6H8.6v4.7h4.7V96.6z M38.4,96.6h-4.7v4.7h4.7V96.6z M58.8,96.6
	L58.8,96.6L58.8,96.6L58.8,96.6L58.8,96.6z M58.8,96.6L58.8,96.6L58.8,96.6L58.8,96.6L58.8,96.6z M63.5,96.6h-4.7v4.7h4.7V96.6z
	 M88.6,96.6h-4.7v4.7h4.7V96.6z M109,46.4L109,46.4L109,46.4L109,46.4L109,46.4z M109,46.4L109,46.4L109,46.4L109,46.4L109,46.4z
	 M113.7,46.4H109v4.7h4.7V46.4z M138.8,46.4h-4.7v4.7h4.7V46.4z M159.2,46.4L159.2,46.4L159.2,46.4L159.2,46.4L159.2,46.4z
	 M159.2,46.4L159.2,46.4L159.2,46.4L159.2,46.4L159.2,46.4z M163.9,46.4h-4.7v4.7h4.7V46.4z M189,46.4h-4.7v4.7h4.7V46.4z M109,71.5
	L109,71.5L109,71.5L109,71.5L109,71.5z M109,71.5L109,71.5L109,71.5L109,71.5L109,71.5z M113.7,71.5H109v4.7h4.7V71.5z M138.8,71.5
	h-4.7v4.7h4.7V71.5z M159.2,71.5L159.2,71.5L159.2,71.5L159.2,71.5L159.2,71.5z M159.2,71.5L159.2,71.5L159.2,71.5L159.2,71.5
	L159.2,71.5z M163.9,71.5h-4.7v4.7h4.7V71.5z M189,71.5h-4.7v4.7h4.7V71.5z M109,96.6L109,96.6L109,96.6L109,96.6L109,96.6z
	 M109,96.6L109,96.6L109,96.6L109,96.6L109,96.6z M113.7,96.6H109v4.7h4.7V96.6z M138.8,96.6h-4.7v4.7h4.7V96.6z M159.2,96.6
	L159.2,96.6L159.2,96.6L159.2,96.6L159.2,96.6z M159.2,96.6L159.2,96.6L159.2,96.6L159.2,96.6L159.2,96.6z M163.9,96.6h-4.7v4.7h4.7
	V96.6z M189,96.6h-4.7v4.7h4.7V96.6z M21.2,8.8L21.2,8.8L21.2,8.8L21.2,8.8L21.2,8.8z M21.2,8.8L21.2,8.8L21.2,8.8L21.2,8.8
	L21.2,8.8z M25.9,8.8h-4.7v4.7h4.7V8.8z M51,8.8h-4.7v4.7H51V8.8z M71.4,8.8L71.4,8.8L71.4,8.8L71.4,8.8L71.4,8.8z M71.4,8.8
	L71.4,8.8L71.4,8.8L71.4,8.8L71.4,8.8z M76.1,8.8h-4.7v4.7h4.7V8.8z M101.2,8.8h-4.7v4.7h4.7V8.8z M21.2,33.9L21.2,33.9L21.2,33.9
	L21.2,33.9L21.2,33.9z M21.2,33.9L21.2,33.9L21.2,33.9L21.2,33.9L21.2,33.9z M25.9,33.9h-4.7v4.7h4.7V33.9z M51,33.9h-4.7v4.7H51
	V33.9z M71.4,33.9L71.4,33.9L71.4,33.9L71.4,33.9L71.4,33.9z M71.4,33.9L71.4,33.9L71.4,33.9L71.4,33.9L71.4,33.9z M76.1,33.9h-4.7
	v4.7h4.7V33.9z M101.2,33.9h-4.7v4.7h4.7V33.9z M121.5,8.8L121.5,8.8L121.5,8.8L121.5,8.8L121.5,8.8z M121.5,8.8L121.5,8.8
	L121.5,8.8L121.5,8.8L121.5,8.8z M126.2,8.8h-4.7v4.7h4.7V8.8z M151.3,8.8h-4.7v4.7h4.7V8.8z M171.7,8.8L171.7,8.8L171.7,8.8
	L171.7,8.8L171.7,8.8z M171.7,8.8L171.7,8.8L171.7,8.8L171.7,8.8L171.7,8.8z M176.4,8.8h-4.7v4.7h4.7V8.8z M201.5,8.8h-4.7v4.7h4.7
	V8.8z M121.5,33.9L121.5,33.9L121.5,33.9L121.5,33.9L121.5,33.9z M121.5,33.9L121.5,33.9L121.5,33.9L121.5,33.9L121.5,33.9z
	 M126.2,33.9h-4.7v4.7h4.7V33.9z M151.3,33.9h-4.7v4.7h4.7V33.9z M171.7,33.9L171.7,33.9L171.7,33.9L171.7,33.9L171.7,33.9z
	 M171.7,33.9L171.7,33.9L171.7,33.9L171.7,33.9L171.7,33.9z M176.4,33.9h-4.7v4.7h4.7V33.9z M201.5,33.9h-4.7v4.7h4.7V33.9z
	 M21.2,58.9L21.2,58.9L21.2,58.9L21.2,58.9L21.2,58.9z M21.2,58.9L21.2,58.9L21.2,58.9L21.2,58.9L21.2,58.9z M25.9,58.9h-4.7v4.7
	h4.7V58.9z M51,58.9h-4.7v4.7H51V58.9z M71.4,58.9L71.4,58.9L71.4,58.9L71.4,58.9L71.4,58.9z M71.4,58.9L71.4,58.9L71.4,58.9
	L71.4,58.9L71.4,58.9z M76.1,58.9h-4.7v4.7h4.7V58.9z M101.2,58.9h-4.7v4.7h4.7V58.9z M21.2,84L21.2,84L21.2,84L21.2,84L21.2,84z
	 M21.2,84L21.2,84L21.2,84L21.2,84L21.2,84z M25.9,84h-4.7v4.7h4.7V84z M51,84h-4.7v4.7H51V84z M71.4,84L71.4,84L71.4,84L71.4,84
	L71.4,84z M71.4,84L71.4,84L71.4,84L71.4,84L71.4,84z M76.1,84h-4.7v4.7h4.7V84z M101.2,84h-4.7v4.7h4.7V84z M21.2,109.1L21.2,109.1
	L21.2,109.1L21.2,109.1L21.2,109.1z M21.2,109.1L21.2,109.1L21.2,109.1L21.2,109.1L21.2,109.1z M25.9,109.1h-4.7v4.7h4.7V109.1z
	 M51,109.1h-4.7v4.7H51V109.1z M71.4,109.1L71.4,109.1L71.4,109.1L71.4,109.1L71.4,109.1z M71.4,109.1L71.4,109.1L71.4,109.1
	L71.4,109.1L71.4,109.1z M76.1,109.1h-4.7v4.7h4.7V109.1z M101.2,109.1h-4.7v4.7h4.7V109.1z M121.5,58.9L121.5,58.9L121.5,58.9
	L121.5,58.9L121.5,58.9z M121.5,58.9L121.5,58.9L121.5,58.9L121.5,58.9L121.5,58.9z M126.2,58.9h-4.7v4.7h4.7V58.9z M151.3,58.9
	h-4.7v4.7h4.7V58.9z M171.7,58.9L171.7,58.9L171.7,58.9L171.7,58.9L171.7,58.9z M171.7,58.9L171.7,58.9L171.7,58.9L171.7,58.9
	L171.7,58.9z M176.4,58.9h-4.7v4.7h4.7V58.9z M201.5,58.9h-4.7v4.7h4.7V58.9z M121.5,84L121.5,84L121.5,84L121.5,84L121.5,84z
	 M121.5,84L121.5,84L121.5,84L121.5,84L121.5,84z M126.2,84h-4.7v4.7h4.7V84z M151.3,84h-4.7v4.7h4.7V84z M171.7,84L171.7,84
	L171.7,84L171.7,84L171.7,84z M171.7,84L171.7,84L171.7,84L171.7,84L171.7,84z M176.4,84h-4.7v4.7h4.7V84z M201.5,84h-4.7v4.7h4.7
	V84z M121.5,109.1L121.5,109.1L121.5,109.1L121.5,109.1L121.5,109.1z M121.5,109.1L121.5,109.1L121.5,109.1L121.5,109.1L121.5,109.1
	z M126.2,109.1h-4.7v4.7h4.7V109.1z M151.3,109.1h-4.7v4.7h4.7V109.1z M171.7,109.1L171.7,109.1L171.7,109.1L171.7,109.1
	L171.7,109.1z M171.7,109.1L171.7,109.1L171.7,109.1L171.7,109.1L171.7,109.1z M176.4,109.1h-4.7v4.7h4.7V109.1z M201.5,109.1h-4.7
	v4.7h4.7V109.1z M13.3,121.7H8.6v4.7h4.7V121.7z M38.4,121.7h-4.7v4.7h4.7V121.7z M63.5,121.7h-4.7v4.7h4.7V121.7z M88.6,121.7h-4.7
	v4.7h4.7V121.7z M8.6,146.8L8.6,146.8L8.6,146.8L8.6,146.8L8.6,146.8z M8.6,146.8L8.6,146.8L8.6,146.8L8.6,146.8L8.6,146.8z
	 M13.3,146.8H8.6v4.7h4.7V146.8z M38.4,146.8h-4.7v4.7h4.7V146.8z M58.8,146.8L58.8,146.8L58.8,146.8L58.8,146.8L58.8,146.8z
	 M58.8,146.8L58.8,146.8L58.8,146.8L58.8,146.8L58.8,146.8z M63.5,146.8h-4.7v4.7h4.7V146.8z M88.6,146.8h-4.7v4.7h4.7V146.8z
	 M113.7,121.7H109v4.7h4.7V121.7z M138.8,121.7h-4.7v4.7h4.7V121.7z M163.9,121.7h-4.7v4.7h4.7V121.7z M189,121.7h-4.7v4.7h4.7
	V121.7z M109,146.8L109,146.8L109,146.8L109,146.8L109,146.8z M109,146.8L109,146.8L109,146.8L109,146.8L109,146.8z M113.7,146.8
	H109v4.7h4.7V146.8z M138.8,146.8h-4.7v4.7h4.7V146.8z M159.2,146.8L159.2,146.8L159.2,146.8L159.2,146.8L159.2,146.8z M159.2,146.8
	L159.2,146.8L159.2,146.8L159.2,146.8L159.2,146.8z M163.9,146.8h-4.7v4.7h4.7V146.8z M189,146.8h-4.7v4.7h4.7V146.8z M8.6,171.8
	L8.6,171.8L8.6,171.8L8.6,171.8L8.6,171.8z M8.6,171.8L8.6,171.8L8.6,171.8L8.6,171.8L8.6,171.8z M13.3,171.8H8.6v4.7h4.7V171.8z
	 M38.4,171.8h-4.7v4.7h4.7V171.8z M58.8,171.8L58.8,171.8L58.8,171.8L58.8,171.8L58.8,171.8z M58.8,171.8L58.8,171.8L58.8,171.8
	L58.8,171.8L58.8,171.8z M63.5,171.8h-4.7v4.7h4.7V171.8z M88.6,171.8h-4.7v4.7h4.7V171.8z M8.6,196.9L8.6,196.9L8.6,196.9
	L8.6,196.9L8.6,196.9z M8.6,196.9L8.6,196.9L8.6,196.9L8.6,196.9L8.6,196.9z M13.3,196.9H8.6v4.7h4.7V196.9z M38.4,196.9h-4.7v4.7
	h4.7V196.9z M58.8,196.9L58.8,196.9L58.8,196.9L58.8,196.9L58.8,196.9z M58.8,196.9L58.8,196.9L58.8,196.9L58.8,196.9L58.8,196.9z
	 M63.5,196.9h-4.7v4.7h4.7V196.9z M88.6,196.9h-4.7v4.7h4.7V196.9z M8.6,222L8.6,222L8.6,222L8.6,222L8.6,222z M8.6,222L8.6,222
	L8.6,222L8.6,222L8.6,222z M13.3,222H8.6v4.7h4.7V222z M38.4,222h-4.7v4.7h4.7V222z M58.8,222L58.8,222L58.8,222L58.8,222L58.8,222z
	 M58.8,222L58.8,222L58.8,222L58.8,222L58.8,222z M63.5,222h-4.7v4.7h4.7V222z M88.6,222h-4.7v4.7h4.7V222z M109,171.8L109,171.8
	L109,171.8L109,171.8L109,171.8z M109,171.8L109,171.8L109,171.8L109,171.8L109,171.8z M113.7,171.8H109v4.7h4.7V171.8z
	 M138.8,171.8h-4.7v4.7h4.7V171.8z M159.2,171.8L159.2,171.8L159.2,171.8L159.2,171.8L159.2,171.8z M159.2,171.8L159.2,171.8
	L159.2,171.8L159.2,171.8L159.2,171.8z M163.9,171.8h-4.7v4.7h4.7V171.8z M189,171.8h-4.7v4.7h4.7V171.8z M109,196.9L109,196.9
	L109,196.9L109,196.9L109,196.9z M109,196.9L109,196.9L109,196.9L109,196.9L109,196.9z M113.7,196.9H109v4.7h4.7V196.9z
	 M138.8,196.9h-4.7v4.7h4.7V196.9z M159.2,196.9L159.2,196.9L159.2,196.9L159.2,196.9L159.2,196.9z M159.2,196.9L159.2,196.9
	L159.2,196.9L159.2,196.9L159.2,196.9z M163.9,196.9h-4.7v4.7h4.7V196.9z M189,196.9h-4.7v4.7h4.7V196.9z M109,222L109,222L109,222
	L109,222L109,222z M109,222L109,222L109,222L109,222L109,222z M113.7,222H109v4.7h4.7V222z M138.8,222h-4.7v4.7h4.7V222z M159.2,222
	L159.2,222L159.2,222L159.2,222L159.2,222z M159.2,222L159.2,222L159.2,222L159.2,222L159.2,222z M163.9,222h-4.7v4.7h4.7V222z
	 M189,222h-4.7v4.7h4.7V222z M21.2,134.2L21.2,134.2L21.2,134.2L21.2,134.2L21.2,134.2z M21.2,134.2L21.2,134.2L21.2,134.2
	L21.2,134.2L21.2,134.2z M25.9,134.2h-4.7v4.7h4.7V134.2z M51,134.2h-4.7v4.7H51V134.2z M71.4,134.2L71.4,134.2L71.4,134.2
	L71.4,134.2L71.4,134.2z M71.4,134.2L71.4,134.2L71.4,134.2L71.4,134.2L71.4,134.2z M76.1,134.2h-4.7v4.7h4.7V134.2z M101.2,134.2
	h-4.7v4.7h4.7V134.2z M21.2,159.3L21.2,159.3L21.2,159.3L21.2,159.3L21.2,159.3z M21.2,159.3L21.2,159.3L21.2,159.3L21.2,159.3
	L21.2,159.3z M25.9,159.3h-4.7v4.7h4.7V159.3z M51,159.3h-4.7v4.7H51V159.3z M71.4,159.3L71.4,159.3L71.4,159.3L71.4,159.3
	L71.4,159.3z M71.4,159.3L71.4,159.3L71.4,159.3L71.4,159.3L71.4,159.3z M76.1,159.3h-4.7v4.7h4.7V159.3z M101.2,159.3h-4.7v4.7h4.7
	V159.3z M121.5,134.2L121.5,134.2L121.5,134.2L121.5,134.2L121.5,134.2z M121.5,134.2L121.5,134.2L121.5,134.2L121.5,134.2
	L121.5,134.2z M126.2,134.2h-4.7v4.7h4.7V134.2z M151.3,134.2h-4.7v4.7h4.7V134.2z M171.7,134.2L171.7,134.2L171.7,134.2
	L171.7,134.2L171.7,134.2z M171.7,134.2L171.7,134.2L171.7,134.2L171.7,134.2L171.7,134.2z M176.4,134.2h-4.7v4.7h4.7V134.2z
	 M201.5,134.2h-4.7v4.7h4.7V134.2z M121.5,159.3L121.5,159.3L121.5,159.3L121.5,159.3L121.5,159.3z M121.5,159.3L121.5,159.3
	L121.5,159.3L121.5,159.3L121.5,159.3z M126.2,159.3h-4.7v4.7h4.7V159.3z M151.3,159.3h-4.7v4.7h4.7V159.3z M171.7,159.3
	L171.7,159.3L171.7,159.3L171.7,159.3L171.7,159.3z M171.7,159.3L171.7,159.3L171.7,159.3L171.7,159.3L171.7,159.3z M176.4,159.3
	h-4.7v4.7h4.7V159.3z M201.5,159.3h-4.7v4.7h4.7V159.3z M21.2,184.4L21.2,184.4L21.2,184.4L21.2,184.4L21.2,184.4z M21.2,184.4
	L21.2,184.4L21.2,184.4L21.2,184.4L21.2,184.4z M25.9,184.4h-4.7v4.7h4.7V184.4z M51,184.4h-4.7v4.7H51V184.4z M71.4,184.4
	L71.4,184.4L71.4,184.4L71.4,184.4L71.4,184.4z M71.4,184.4L71.4,184.4L71.4,184.4L71.4,184.4L71.4,184.4z M76.1,184.4h-4.7v4.7h4.7
	V184.4z M101.2,184.4h-4.7v4.7h4.7V184.4z M21.2,209.5L21.2,209.5L21.2,209.5L21.2,209.5L21.2,209.5z M21.2,209.5L21.2,209.5
	L21.2,209.5L21.2,209.5L21.2,209.5z M25.9,209.5h-4.7v4.7h4.7V209.5z M51,209.5h-4.7v4.7H51V209.5z M71.4,209.5L71.4,209.5
	L71.4,209.5L71.4,209.5L71.4,209.5z M71.4,209.5L71.4,209.5L71.4,209.5L71.4,209.5L71.4,209.5z M76.1,209.5h-4.7v4.7h4.7V209.5z
	 M101.2,209.5h-4.7v4.7h4.7V209.5z M21.2,234.6L21.2,234.6L21.2,234.6L21.2,234.6L21.2,234.6z M21.2,234.6L21.2,234.6L21.2,234.6
	L21.2,234.6L21.2,234.6z M25.9,234.6h-4.7v4.7h4.7V234.6z M51,234.6h-4.7v4.7H51V234.6z M71.4,234.6L71.4,234.6L71.4,234.6
	L71.4,234.6L71.4,234.6z M71.4,234.6L71.4,234.6L71.4,234.6L71.4,234.6L71.4,234.6z M76.1,234.6h-4.7v4.7h4.7V234.6z M101.2,234.6
	h-4.7v4.7h4.7V234.6z M121.5,184.4L121.5,184.4L121.5,184.4L121.5,184.4L121.5,184.4z M121.5,184.4L121.5,184.4L121.5,184.4
	L121.5,184.4L121.5,184.4z M126.2,184.4h-4.7v4.7h4.7V184.4z M151.3,184.4h-4.7v4.7h4.7V184.4z M171.7,184.4L171.7,184.4
	L171.7,184.4L171.7,184.4L171.7,184.4z M171.7,184.4L171.7,184.4L171.7,184.4L171.7,184.4L171.7,184.4z M176.4,184.4h-4.7v4.7h4.7
	V184.4z M201.5,184.4h-4.7v4.7h4.7V184.4z M121.5,209.5L121.5,209.5L121.5,209.5L121.5,209.5L121.5,209.5z M121.5,209.5L121.5,209.5
	L121.5,209.5L121.5,209.5L121.5,209.5z M126.2,209.5h-4.7v4.7h4.7V209.5z M151.3,209.5h-4.7v4.7h4.7V209.5z M171.7,209.5
	L171.7,209.5L171.7,209.5L171.7,209.5L171.7,209.5z M171.7,209.5L171.7,209.5L171.7,209.5L171.7,209.5L171.7,209.5z M176.4,209.5
	h-4.7v4.7h4.7V209.5z M201.5,209.5h-4.7v4.7h4.7V209.5z M121.5,234.6L121.5,234.6L121.5,234.6L121.5,234.6L121.5,234.6z
	 M121.5,234.6L121.5,234.6L121.5,234.6L121.5,234.6L121.5,234.6z M126.2,234.6h-4.7v4.7h4.7V234.6z M151.3,234.6h-4.7v4.7h4.7V234.6
	z M171.7,234.6L171.7,234.6L171.7,234.6L171.7,234.6L171.7,234.6z M171.7,234.6L171.7,234.6L171.7,234.6L171.7,234.6L171.7,234.6z
	 M176.4,234.6h-4.7v4.7h4.7V234.6z M201.5,234.6h-4.7v4.7h4.7V234.6z M13.3,247.1H8.6v4.7h4.7V247.1z M38.4,247.1h-4.7v4.7h4.7
	V247.1z M63.5,247.1h-4.7v4.7h4.7V247.1z M88.6,247.1h-4.7v4.7h4.7V247.1z M8.6,272.2L8.6,272.2L8.6,272.2L8.6,272.2L8.6,272.2z
	 M8.6,272.2L8.6,272.2L8.6,272.2L8.6,272.2L8.6,272.2z M13.3,272.2H8.6v4.7h4.7V272.2z M38.4,272.2h-4.7v4.7h4.7V272.2z M58.8,272.2
	L58.8,272.2L58.8,272.2L58.8,272.2L58.8,272.2z M58.8,272.2L58.8,272.2L58.8,272.2L58.8,272.2L58.8,272.2z M63.5,272.2h-4.7v4.7h4.7
	V272.2z M88.6,272.2h-4.7v4.7h4.7V272.2z M113.7,247.1H109v4.7h4.7V247.1z M138.8,247.1h-4.7v4.7h4.7V247.1z M163.9,247.1h-4.7v4.7
	h4.7V247.1z M189,247.1h-4.7v4.7h4.7V247.1z M109,272.2L109,272.2L109,272.2L109,272.2L109,272.2z M109,272.2L109,272.2L109,272.2
	L109,272.2L109,272.2z M113.7,272.2H109v4.7h4.7V272.2z M138.8,272.2h-4.7v4.7h4.7V272.2z M159.2,272.2L159.2,272.2L159.2,272.2
	L159.2,272.2L159.2,272.2z M159.2,272.2L159.2,272.2L159.2,272.2L159.2,272.2L159.2,272.2z M163.9,272.2h-4.7v4.7h4.7V272.2z
	 M189,272.2h-4.7v4.7h4.7V272.2z M8.6,297.3L8.6,297.3L8.6,297.3L8.6,297.3L8.6,297.3z M8.6,297.3L8.6,297.3L8.6,297.3L8.6,297.3
	L8.6,297.3z M58.8,297.3L58.8,297.3L58.8,297.3L58.8,297.3L58.8,297.3z M58.8,297.3L58.8,297.3L58.8,297.3L58.8,297.3L58.8,297.3z
	 M109,297.3L109,297.3L109,297.3L109,297.3L109,297.3z M109,297.3L109,297.3L109,297.3L109,297.3L109,297.3z M159.2,297.3
	L159.2,297.3L159.2,297.3L159.2,297.3L159.2,297.3z M159.2,297.3L159.2,297.3L159.2,297.3L159.2,297.3L159.2,297.3z M21.2,259.7
	L21.2,259.7L21.2,259.7L21.2,259.7L21.2,259.7z M21.2,259.7L21.2,259.7L21.2,259.7L21.2,259.7L21.2,259.7z M25.9,259.7h-4.7v4.7h4.7
	V259.7z M51,259.7h-4.7v4.7H51V259.7z M71.4,259.7L71.4,259.7L71.4,259.7L71.4,259.7L71.4,259.7z M71.4,259.7L71.4,259.7L71.4,259.7
	L71.4,259.7L71.4,259.7z M76.1,259.7h-4.7v4.7h4.7V259.7z M101.2,259.7h-4.7v4.7h4.7V259.7z M21.2,284.7L21.2,284.7L21.2,284.7
	L21.2,284.7L21.2,284.7z M21.2,284.7L21.2,284.7L21.2,284.7L21.2,284.7L21.2,284.7z M25.9,284.7h-4.7v4.7h4.7V284.7z M51,284.7h-4.7
	v4.7H51V284.7z M71.4,284.7L71.4,284.7L71.4,284.7L71.4,284.7L71.4,284.7z M71.4,284.7L71.4,284.7L71.4,284.7L71.4,284.7L71.4,284.7
	z M76.1,284.7h-4.7v4.7h4.7V284.7z M101.2,284.7h-4.7v4.7h4.7V284.7z M121.5,259.7L121.5,259.7L121.5,259.7L121.5,259.7L121.5,259.7
	z M121.5,259.7L121.5,259.7L121.5,259.7L121.5,259.7L121.5,259.7z M126.2,259.7h-4.7v4.7h4.7V259.7z M151.3,259.7h-4.7v4.7h4.7
	V259.7z M171.7,259.7L171.7,259.7L171.7,259.7L171.7,259.7L171.7,259.7z M171.7,259.7L171.7,259.7L171.7,259.7L171.7,259.7
	L171.7,259.7z M176.4,259.7h-4.7v4.7h4.7V259.7z M201.5,259.7h-4.7v4.7h4.7V259.7z M121.5,284.7L121.5,284.7L121.5,284.7
	L121.5,284.7L121.5,284.7z M121.5,284.7L121.5,284.7L121.5,284.7L121.5,284.7L121.5,284.7z M126.2,284.7h-4.7v4.7h4.7V284.7z
	 M151.3,284.7h-4.7v4.7h4.7V284.7z M171.7,284.7L171.7,284.7L171.7,284.7L171.7,284.7L171.7,284.7z M171.7,284.7L171.7,284.7
	L171.7,284.7L171.7,284.7L171.7,284.7z M176.4,284.7h-4.7v4.7h4.7V284.7z M201.5,284.7h-4.7v4.7h4.7V284.7z M209.4,21.3L209.4,21.3
	L209.4,21.3L209.4,21.3L209.4,21.3z M209.4,21.3L209.4,21.3L209.4,21.3L209.4,21.3L209.4,21.3z M214.1,21.3h-4.7V26h4.7V21.3z
	 M239.1,21.3h-4.7V26h4.7V21.3z M259.5,21.3L259.5,21.3L259.5,21.3L259.5,21.3L259.5,21.3z M259.5,21.3L259.5,21.3L259.5,21.3
	L259.5,21.3L259.5,21.3z M264.2,21.3h-4.7V26h4.7V21.3z M289.3,21.3h-4.7V26h4.7V21.3z M309.7,21.3L309.7,21.3L309.7,21.3
	L309.7,21.3L309.7,21.3z M309.7,21.3L309.7,21.3L309.7,21.3L309.7,21.3L309.7,21.3z M314.4,21.3h-4.7V26h4.7V21.3z M209.4,46.4
	L209.4,46.4L209.4,46.4L209.4,46.4L209.4,46.4z M209.4,46.4L209.4,46.4L209.4,46.4L209.4,46.4L209.4,46.4z M214.1,46.4h-4.7v4.7h4.7
	V46.4z M239.1,46.4h-4.7v4.7h4.7V46.4z M209.4,71.5L209.4,71.5L209.4,71.5L209.4,71.5L209.4,71.5z M209.4,71.5L209.4,71.5
	L209.4,71.5L209.4,71.5L209.4,71.5z M214.1,71.5h-4.7v4.7h4.7V71.5z M239.1,71.5h-4.7v4.7h4.7V71.5z M209.4,96.6L209.4,96.6
	L209.4,96.6L209.4,96.6L209.4,96.6z M209.4,96.6L209.4,96.6L209.4,96.6L209.4,96.6L209.4,96.6z M214.1,96.6h-4.7v4.7h4.7V96.6z
	 M239.1,96.6h-4.7v4.7h4.7V96.6z M259.5,46.4L259.5,46.4L259.5,46.4L259.5,46.4L259.5,46.4z M259.5,46.4L259.5,46.4L259.5,46.4
	L259.5,46.4L259.5,46.4z M264.2,46.4h-4.7v4.7h4.7V46.4z M289.3,46.4h-4.7v4.7h4.7V46.4z M309.7,46.4L309.7,46.4L309.7,46.4
	L309.7,46.4L309.7,46.4z M309.7,46.4L309.7,46.4L309.7,46.4L309.7,46.4L309.7,46.4z M314.4,46.4h-4.7v4.7h4.7V46.4z M259.5,71.5
	L259.5,71.5L259.5,71.5L259.5,71.5L259.5,71.5z M259.5,71.5L259.5,71.5L259.5,71.5L259.5,71.5L259.5,71.5z M264.2,71.5h-4.7v4.7h4.7
	V71.5z M289.3,71.5h-4.7v4.7h4.7V71.5z M309.7,71.5L309.7,71.5L309.7,71.5L309.7,71.5L309.7,71.5z M309.7,71.5L309.7,71.5
	L309.7,71.5L309.7,71.5L309.7,71.5z M314.4,71.5h-4.7v4.7h4.7V71.5z M259.5,96.6L259.5,96.6L259.5,96.6L259.5,96.6L259.5,96.6z
	 M259.5,96.6L259.5,96.6L259.5,96.6L259.5,96.6L259.5,96.6z M264.2,96.6h-4.7v4.7h4.7V96.6z M289.3,96.6h-4.7v4.7h4.7V96.6z
	 M309.7,96.6L309.7,96.6L309.7,96.6L309.7,96.6L309.7,96.6z M309.7,96.6L309.7,96.6L309.7,96.6L309.7,96.6L309.7,96.6z M314.4,96.6
	h-4.7v4.7h4.7V96.6z M221.9,8.8L221.9,8.8L221.9,8.8L221.9,8.8L221.9,8.8z M221.9,8.8L221.9,8.8L221.9,8.8L221.9,8.8L221.9,8.8z
	 M226.6,8.8h-4.7v4.7h4.7V8.8z M251.7,8.8H247v4.7h4.7V8.8z M221.9,33.9L221.9,33.9L221.9,33.9L221.9,33.9L221.9,33.9z M221.9,33.9
	L221.9,33.9L221.9,33.9L221.9,33.9L221.9,33.9z M226.6,33.9h-4.7v4.7h4.7V33.9z M251.7,33.9H247v4.7h4.7V33.9z M272.1,8.8L272.1,8.8
	L272.1,8.8L272.1,8.8L272.1,8.8z M272.1,8.8L272.1,8.8L272.1,8.8L272.1,8.8L272.1,8.8z M276.8,8.8h-4.7v4.7h4.7V8.8z M301.9,8.8
	h-4.7v4.7h4.7V8.8z M322.3,8.8L322.3,8.8L322.3,8.8L322.3,8.8L322.3,8.8z M322.3,8.8L322.3,8.8L322.3,8.8L322.3,8.8L322.3,8.8z
	 M272.1,33.9L272.1,33.9L272.1,33.9L272.1,33.9L272.1,33.9z M272.1,33.9L272.1,33.9L272.1,33.9L272.1,33.9L272.1,33.9z M276.8,33.9
	h-4.7v4.7h4.7V33.9z M301.9,33.9h-4.7v4.7h4.7V33.9z M221.9,58.9L221.9,58.9L221.9,58.9L221.9,58.9L221.9,58.9z M221.9,58.9
	L221.9,58.9L221.9,58.9L221.9,58.9L221.9,58.9z M226.6,58.9h-4.7v4.7h4.7V58.9z M251.7,58.9H247v4.7h4.7V58.9z M221.9,84L221.9,84
	L221.9,84L221.9,84L221.9,84z M221.9,84L221.9,84L221.9,84L221.9,84L221.9,84z M226.6,84h-4.7v4.7h4.7V84z M251.7,84H247v4.7h4.7V84
	z M221.9,109.1L221.9,109.1L221.9,109.1L221.9,109.1L221.9,109.1z M221.9,109.1L221.9,109.1L221.9,109.1L221.9,109.1L221.9,109.1z
	 M226.6,109.1h-4.7v4.7h4.7V109.1z M251.7,109.1H247v4.7h4.7V109.1z M272.1,58.9L272.1,58.9L272.1,58.9L272.1,58.9L272.1,58.9z
	 M272.1,58.9L272.1,58.9L272.1,58.9L272.1,58.9L272.1,58.9z M276.8,58.9h-4.7v4.7h4.7V58.9z M301.9,58.9h-4.7v4.7h4.7V58.9z
	 M272.1,84L272.1,84L272.1,84L272.1,84L272.1,84z M272.1,84L272.1,84L272.1,84L272.1,84L272.1,84z M276.8,84h-4.7v4.7h4.7V84z
	 M301.9,84h-4.7v4.7h4.7V84z M272.1,109.1L272.1,109.1L272.1,109.1L272.1,109.1L272.1,109.1z M272.1,109.1L272.1,109.1L272.1,109.1
	L272.1,109.1L272.1,109.1z M276.8,109.1h-4.7v4.7h4.7V109.1z M301.9,109.1h-4.7v4.7h4.7V109.1z M214.1,121.7h-4.7v4.7h4.7V121.7z
	 M239.1,121.7h-4.7v4.7h4.7V121.7z M209.4,146.8L209.4,146.8L209.4,146.8L209.4,146.8L209.4,146.8z M209.4,146.8L209.4,146.8
	L209.4,146.8L209.4,146.8L209.4,146.8z M214.1,146.8h-4.7v4.7h4.7V146.8z M239.1,146.8h-4.7v4.7h4.7V146.8z M264.2,121.7h-4.7v4.7
	h4.7V121.7z M289.3,121.7h-4.7v4.7h4.7V121.7z M314.4,121.7h-4.7v4.7h4.7V121.7z M259.5,146.8L259.5,146.8L259.5,146.8L259.5,146.8
	L259.5,146.8z M259.5,146.8L259.5,146.8L259.5,146.8L259.5,146.8L259.5,146.8z M264.2,146.8h-4.7v4.7h4.7V146.8z M289.3,146.8h-4.7
	v4.7h4.7V146.8z M309.7,146.8L309.7,146.8L309.7,146.8L309.7,146.8L309.7,146.8z M309.7,146.8L309.7,146.8L309.7,146.8L309.7,146.8
	L309.7,146.8z M314.4,146.8h-4.7v4.7h4.7V146.8z M209.4,171.8L209.4,171.8L209.4,171.8L209.4,171.8L209.4,171.8z M209.4,171.8
	L209.4,171.8L209.4,171.8L209.4,171.8L209.4,171.8z M214.1,171.8h-4.7v4.7h4.7V171.8z M239.1,171.8h-4.7v4.7h4.7V171.8z
	 M209.4,196.9L209.4,196.9L209.4,196.9L209.4,196.9L209.4,196.9z M209.4,196.9L209.4,196.9L209.4,196.9L209.4,196.9L209.4,196.9z
	 M214.1,196.9h-4.7v4.7h4.7V196.9z M239.1,196.9h-4.7v4.7h4.7V196.9z M209.4,222L209.4,222L209.4,222L209.4,222L209.4,222z
	 M209.4,222L209.4,222L209.4,222L209.4,222L209.4,222z M214.1,222h-4.7v4.7h4.7V222z M239.1,222h-4.7v4.7h4.7V222z M259.5,171.8
	L259.5,171.8L259.5,171.8L259.5,171.8L259.5,171.8z M259.5,171.8L259.5,171.8L259.5,171.8L259.5,171.8L259.5,171.8z M264.2,171.8
	h-4.7v4.7h4.7V171.8z M289.3,171.8h-4.7v4.7h4.7V171.8z M309.7,171.8L309.7,171.8L309.7,171.8L309.7,171.8L309.7,171.8z
	 M309.7,171.8L309.7,171.8L309.7,171.8L309.7,171.8L309.7,171.8z M314.4,171.8h-4.7v4.7h4.7V171.8z M259.5,196.9L259.5,196.9
	L259.5,196.9L259.5,196.9L259.5,196.9z M259.5,196.9L259.5,196.9L259.5,196.9L259.5,196.9L259.5,196.9z M264.2,196.9h-4.7v4.7h4.7
	V196.9z M289.3,196.9h-4.7v4.7h4.7V196.9z M309.7,196.9L309.7,196.9L309.7,196.9L309.7,196.9L309.7,196.9z M309.7,196.9L309.7,196.9
	L309.7,196.9L309.7,196.9L309.7,196.9z M314.4,196.9h-4.7v4.7h4.7V196.9z M259.5,222L259.5,222L259.5,222L259.5,222L259.5,222z
	 M259.5,222L259.5,222L259.5,222L259.5,222L259.5,222z M264.2,222h-4.7v4.7h4.7V222z M289.3,222h-4.7v4.7h4.7V222z M309.7,222
	L309.7,222L309.7,222L309.7,222L309.7,222z M309.7,222L309.7,222L309.7,222L309.7,222L309.7,222z M314.4,222h-4.7v4.7h4.7V222z
	 M221.9,134.2L221.9,134.2L221.9,134.2L221.9,134.2L221.9,134.2z M221.9,134.2L221.9,134.2L221.9,134.2L221.9,134.2L221.9,134.2z
	 M226.6,134.2h-4.7v4.7h4.7V134.2z M251.7,134.2H247v4.7h4.7V134.2z M221.9,159.3L221.9,159.3L221.9,159.3L221.9,159.3L221.9,159.3z
	 M221.9,159.3L221.9,159.3L221.9,159.3L221.9,159.3L221.9,159.3z M226.6,159.3h-4.7v4.7h4.7V159.3z M251.7,159.3H247v4.7h4.7V159.3z
	 M272.1,134.2L272.1,134.2L272.1,134.2L272.1,134.2L272.1,134.2z M272.1,134.2L272.1,134.2L272.1,134.2L272.1,134.2L272.1,134.2z
	 M276.8,134.2h-4.7v4.7h4.7V134.2z M301.9,134.2h-4.7v4.7h4.7V134.2z M272.1,159.3L272.1,159.3L272.1,159.3L272.1,159.3L272.1,159.3
	z M272.1,159.3L272.1,159.3L272.1,159.3L272.1,159.3L272.1,159.3z M276.8,159.3h-4.7v4.7h4.7V159.3z M301.9,159.3h-4.7v4.7h4.7
	V159.3z M221.9,184.4L221.9,184.4L221.9,184.4L221.9,184.4L221.9,184.4z M221.9,184.4L221.9,184.4L221.9,184.4L221.9,184.4
	L221.9,184.4z M226.6,184.4h-4.7v4.7h4.7V184.4z M251.7,184.4H247v4.7h4.7V184.4z M221.9,209.5L221.9,209.5L221.9,209.5L221.9,209.5
	L221.9,209.5z M221.9,209.5L221.9,209.5L221.9,209.5L221.9,209.5L221.9,209.5z M226.6,209.5h-4.7v4.7h4.7V209.5z M251.7,209.5H247
	v4.7h4.7V209.5z M221.9,234.6L221.9,234.6L221.9,234.6L221.9,234.6L221.9,234.6z M221.9,234.6L221.9,234.6L221.9,234.6L221.9,234.6
	L221.9,234.6z M226.6,234.6h-4.7v4.7h4.7V234.6z M251.7,234.6H247v4.7h4.7V234.6z M272.1,184.4L272.1,184.4L272.1,184.4L272.1,184.4
	L272.1,184.4z M272.1,184.4L272.1,184.4L272.1,184.4L272.1,184.4L272.1,184.4z M276.8,184.4h-4.7v4.7h4.7V184.4z M301.9,184.4h-4.7
	v4.7h4.7V184.4z M272.1,209.5L272.1,209.5L272.1,209.5L272.1,209.5L272.1,209.5z M272.1,209.5L272.1,209.5L272.1,209.5L272.1,209.5
	L272.1,209.5z M276.8,209.5h-4.7v4.7h4.7V209.5z M301.9,209.5h-4.7v4.7h4.7V209.5z M272.1,234.6L272.1,234.6L272.1,234.6
	L272.1,234.6L272.1,234.6z M272.1,234.6L272.1,234.6L272.1,234.6L272.1,234.6L272.1,234.6z M276.8,234.6h-4.7v4.7h4.7V234.6z
	 M301.9,234.6h-4.7v4.7h4.7V234.6z M214.1,247.1h-4.7v4.7h4.7V247.1z M239.1,247.1h-4.7v4.7h4.7V247.1z M209.4,272.2L209.4,272.2
	L209.4,272.2L209.4,272.2L209.4,272.2z M209.4,272.2L209.4,272.2L209.4,272.2L209.4,272.2L209.4,272.2z M214.1,272.2h-4.7v4.7h4.7
	V272.2z M239.1,272.2h-4.7v4.7h4.7V272.2z M264.2,247.1h-4.7v4.7h4.7V247.1z M289.3,247.1h-4.7v4.7h4.7V247.1z M314.4,247.1h-4.7
	v4.7h4.7V247.1z M259.5,272.2L259.5,272.2L259.5,272.2L259.5,272.2L259.5,272.2z M259.5,272.2L259.5,272.2L259.5,272.2L259.5,272.2
	L259.5,272.2z M264.2,272.2h-4.7v4.7h4.7V272.2z M289.3,272.2h-4.7v4.7h4.7V272.2z M309.7,272.2L309.7,272.2L309.7,272.2
	L309.7,272.2L309.7,272.2z M309.7,272.2L309.7,272.2L309.7,272.2L309.7,272.2L309.7,272.2z M314.4,272.2h-4.7v4.7h4.7V272.2z
	 M221.9,259.7L221.9,259.7L221.9,259.7L221.9,259.7L221.9,259.7z M221.9,259.7L221.9,259.7L221.9,259.7L221.9,259.7L221.9,259.7z
	 M226.6,259.7h-4.7v4.7h4.7V259.7z M251.7,259.7H247v4.7h4.7V259.7z M221.9,284.7L221.9,284.7L221.9,284.7L221.9,284.7L221.9,284.7z
	 M221.9,284.7L221.9,284.7L221.9,284.7L221.9,284.7L221.9,284.7z M226.6,284.7h-4.7v4.7h4.7V284.7z M251.7,284.7H247v4.7h4.7V284.7z
	 M272.1,259.7L272.1,259.7L272.1,259.7L272.1,259.7L272.1,259.7z M272.1,259.7L272.1,259.7L272.1,259.7L272.1,259.7L272.1,259.7z
	 M276.8,259.7h-4.7v4.7h4.7V259.7z M301.9,259.7h-4.7v4.7h4.7V259.7z M272.1,284.7L272.1,284.7L272.1,284.7L272.1,284.7L272.1,284.7
	z M272.1,284.7L272.1,284.7L272.1,284.7L272.1,284.7L272.1,284.7z M276.8,284.7h-4.7v4.7h4.7V284.7z M301.9,284.7h-4.7v4.7h4.7
	V284.7z M13.3,297.3H8.6v4.7h4.7V297.3z M38.4,297.3h-4.7v4.7h4.7V297.3z M63.5,297.3h-4.7v4.7h4.7V297.3z M88.6,297.3h-4.7v4.7h4.7
	V297.3z M8.6,322.4L8.6,322.4L8.6,322.4L8.6,322.4L8.6,322.4z M8.6,322.4L8.6,322.4L8.6,322.4L8.6,322.4L8.6,322.4z M13.3,322.4H8.6
	v4.7h4.7V322.4z M38.4,322.4h-4.7v4.7h4.7V322.4z M58.8,322.4L58.8,322.4L58.8,322.4L58.8,322.4L58.8,322.4z M58.8,322.4L58.8,322.4
	L58.8,322.4L58.8,322.4L58.8,322.4z M63.5,322.4h-4.7v4.7h4.7V322.4z M88.6,322.4h-4.7v4.7h4.7V322.4z M113.7,297.3H109v4.7h4.7
	V297.3z M138.8,297.3h-4.7v4.7h4.7V297.3z M163.9,297.3h-4.7v4.7h4.7V297.3z M189,297.3h-4.7v4.7h4.7V297.3z M109,322.4L109,322.4
	L109,322.4L109,322.4L109,322.4z M109,322.4L109,322.4L109,322.4L109,322.4L109,322.4z M113.7,322.4H109v4.7h4.7V322.4z
	 M138.8,322.4h-4.7v4.7h4.7V322.4z M159.2,322.4L159.2,322.4L159.2,322.4L159.2,322.4L159.2,322.4z M159.2,322.4L159.2,322.4
	L159.2,322.4L159.2,322.4L159.2,322.4z M163.9,322.4h-4.7v4.7h4.7V322.4z M189,322.4h-4.7v4.7h4.7V322.4z M21.2,309.8L21.2,309.8
	L21.2,309.8L21.2,309.8L21.2,309.8z M21.2,309.8L21.2,309.8L21.2,309.8L21.2,309.8L21.2,309.8z M25.9,309.8h-4.7v4.7h4.7V309.8z
	 M51,309.8h-4.7v4.7H51V309.8z M71.4,309.8L71.4,309.8L71.4,309.8L71.4,309.8L71.4,309.8z M71.4,309.8L71.4,309.8L71.4,309.8
	L71.4,309.8L71.4,309.8z M76.1,309.8h-4.7v4.7h4.7V309.8z M101.2,309.8h-4.7v4.7h4.7V309.8z M21.2,334.9L21.2,334.9L21.2,334.9
	L21.2,334.9L21.2,334.9z M21.2,334.9L21.2,334.9L21.2,334.9L21.2,334.9L21.2,334.9z M25.9,334.9h-4.7v4.7h4.7V334.9z M51,334.9h-4.7
	v4.7H51V334.9z M71.4,334.9L71.4,334.9L71.4,334.9L71.4,334.9L71.4,334.9z M71.4,334.9L71.4,334.9L71.4,334.9L71.4,334.9L71.4,334.9
	z M76.1,334.9h-4.7v4.7h4.7V334.9z M101.2,334.9h-4.7v4.7h4.7V334.9z M121.5,309.8L121.5,309.8L121.5,309.8L121.5,309.8L121.5,309.8
	z M121.5,309.8L121.5,309.8L121.5,309.8L121.5,309.8L121.5,309.8z M126.2,309.8h-4.7v4.7h4.7V309.8z M151.3,309.8h-4.7v4.7h4.7
	V309.8z M171.7,309.8L171.7,309.8L171.7,309.8L171.7,309.8L171.7,309.8z M171.7,309.8L171.7,309.8L171.7,309.8L171.7,309.8
	L171.7,309.8z M176.4,309.8h-4.7v4.7h4.7V309.8z M201.5,309.8h-4.7v4.7h4.7V309.8z M121.5,334.9L121.5,334.9L121.5,334.9
	L121.5,334.9L121.5,334.9z M121.5,334.9L121.5,334.9L121.5,334.9L121.5,334.9L121.5,334.9z M126.2,334.9h-4.7v4.7h4.7V334.9z
	 M151.3,334.9h-4.7v4.7h4.7V334.9z M171.7,334.9L171.7,334.9L171.7,334.9L171.7,334.9L171.7,334.9z M171.7,334.9L171.7,334.9
	L171.7,334.9L171.7,334.9L171.7,334.9z M176.4,334.9h-4.7v4.7h4.7V334.9z M201.5,334.9h-4.7v4.7h4.7V334.9z M13.3,347.5H8.6v4.7h4.7
	V347.5z M38.4,347.5h-4.7v4.7h4.7V347.5z M63.5,347.5h-4.7v4.7h4.7V347.5z M88.6,347.5h-4.7v4.7h4.7V347.5z M8.6,372.6L8.6,372.6
	L8.6,372.6L8.6,372.6L8.6,372.6z M8.6,372.6L8.6,372.6L8.6,372.6L8.6,372.6L8.6,372.6z M13.3,372.6H8.6v4.7h4.7V372.6z M38.4,372.6
	h-4.7v4.7h4.7V372.6z M58.8,372.6L58.8,372.6L58.8,372.6L58.8,372.6L58.8,372.6z M58.8,372.6L58.8,372.6L58.8,372.6L58.8,372.6
	L58.8,372.6z M63.5,372.6h-4.7v4.7h4.7V372.6z M88.6,372.6h-4.7v4.7h4.7V372.6z M113.7,347.5H109v4.7h4.7V347.5z M138.8,347.5h-4.7
	v4.7h4.7V347.5z M163.9,347.5h-4.7v4.7h4.7V347.5z M189,347.5h-4.7v4.7h4.7V347.5z M109,372.6L109,372.6L109,372.6L109,372.6
	L109,372.6z M109,372.6L109,372.6L109,372.6L109,372.6L109,372.6z M113.7,372.6H109v4.7h4.7V372.6z M138.8,372.6h-4.7v4.7h4.7V372.6
	z M159.2,372.6L159.2,372.6L159.2,372.6L159.2,372.6L159.2,372.6z M159.2,372.6L159.2,372.6L159.2,372.6L159.2,372.6L159.2,372.6z
	 M163.9,372.6h-4.7v4.7h4.7V372.6z M189,372.6h-4.7v4.7h4.7V372.6z M8.6,397.6L8.6,397.6L8.6,397.6L8.6,397.6L8.6,397.6z M8.6,397.6
	L8.6,397.6L8.6,397.6L8.6,397.6L8.6,397.6z M13.3,397.6H8.6v4.7h4.7V397.6z M38.4,397.6h-4.7v4.7h4.7V397.6z M58.8,397.6L58.8,397.6
	L58.8,397.6L58.8,397.6L58.8,397.6z M58.8,397.6L58.8,397.6L58.8,397.6L58.8,397.6L58.8,397.6z M63.5,397.6h-4.7v4.7h4.7V397.6z
	 M88.6,397.6h-4.7v4.7h4.7V397.6z M8.6,422.7L8.6,422.7L8.6,422.7L8.6,422.7L8.6,422.7z M8.6,422.7L8.6,422.7L8.6,422.7L8.6,422.7
	L8.6,422.7z M13.3,422.7H8.6v4.7h4.7V422.7z M38.4,422.7h-4.7v4.7h4.7V422.7z M58.8,422.7L58.8,422.7L58.8,422.7L58.8,422.7
	L58.8,422.7z M58.8,422.7L58.8,422.7L58.8,422.7L58.8,422.7L58.8,422.7z M63.5,422.7h-4.7v4.7h4.7V422.7z M88.6,422.7h-4.7v4.7h4.7
	V422.7z M8.6,447.8L8.6,447.8L8.6,447.8L8.6,447.8L8.6,447.8z M8.6,447.8L8.6,447.8L8.6,447.8L8.6,447.8L8.6,447.8z M13.3,447.8H8.6
	v4.7h4.7V447.8z M38.4,447.8h-4.7v4.7h4.7V447.8z M58.8,447.8L58.8,447.8L58.8,447.8L58.8,447.8L58.8,447.8z M58.8,447.8L58.8,447.8
	L58.8,447.8L58.8,447.8L58.8,447.8z M63.5,447.8h-4.7v4.7h4.7V447.8z M88.6,447.8h-4.7v4.7h4.7V447.8z M109,397.6L109,397.6
	L109,397.6L109,397.6L109,397.6z M109,397.6L109,397.6L109,397.6L109,397.6L109,397.6z M113.7,397.6H109v4.7h4.7V397.6z
	 M138.8,397.6h-4.7v4.7h4.7V397.6z M159.2,397.6L159.2,397.6L159.2,397.6L159.2,397.6L159.2,397.6z M159.2,397.6L159.2,397.6
	L159.2,397.6L159.2,397.6L159.2,397.6z M163.9,397.6h-4.7v4.7h4.7V397.6z M189,397.6h-4.7v4.7h4.7V397.6z M109,422.7L109,422.7
	L109,422.7L109,422.7L109,422.7z M109,422.7L109,422.7L109,422.7L109,422.7L109,422.7z M113.7,422.7H109v4.7h4.7V422.7z
	 M138.8,422.7h-4.7v4.7h4.7V422.7z M159.2,422.7L159.2,422.7L159.2,422.7L159.2,422.7L159.2,422.7z M159.2,422.7L159.2,422.7
	L159.2,422.7L159.2,422.7L159.2,422.7z M163.9,422.7h-4.7v4.7h4.7V422.7z M189,422.7h-4.7v4.7h4.7V422.7z M109,447.8L109,447.8
	L109,447.8L109,447.8L109,447.8z M109,447.8L109,447.8L109,447.8L109,447.8L109,447.8z M113.7,447.8H109v4.7h4.7V447.8z
	 M138.8,447.8h-4.7v4.7h4.7V447.8z M159.2,447.8L159.2,447.8L159.2,447.8L159.2,447.8L159.2,447.8z M159.2,447.8L159.2,447.8
	L159.2,447.8L159.2,447.8L159.2,447.8z M163.9,447.8h-4.7v4.7h4.7V447.8z M189,447.8h-4.7v4.7h4.7V447.8z M21.2,360L21.2,360
	L21.2,360L21.2,360L21.2,360z M21.2,360L21.2,360L21.2,360L21.2,360L21.2,360z M25.9,360h-4.7v4.7h4.7V360z M51,360h-4.7v4.7H51V360
	z M71.4,360L71.4,360L71.4,360L71.4,360L71.4,360z M71.4,360L71.4,360L71.4,360L71.4,360L71.4,360z M76.1,360h-4.7v4.7h4.7V360z
	 M101.2,360h-4.7v4.7h4.7V360z M21.2,385.1L21.2,385.1L21.2,385.1L21.2,385.1L21.2,385.1z M21.2,385.1L21.2,385.1L21.2,385.1
	L21.2,385.1L21.2,385.1z M25.9,385.1h-4.7v4.7h4.7V385.1z M51,385.1h-4.7v4.7H51V385.1z M71.4,385.1L71.4,385.1L71.4,385.1
	L71.4,385.1L71.4,385.1z M71.4,385.1L71.4,385.1L71.4,385.1L71.4,385.1L71.4,385.1z M76.1,385.1h-4.7v4.7h4.7V385.1z M101.2,385.1
	h-4.7v4.7h4.7V385.1z M121.5,360L121.5,360L121.5,360L121.5,360L121.5,360z M121.5,360L121.5,360L121.5,360L121.5,360L121.5,360z
	 M126.2,360h-4.7v4.7h4.7V360z M151.3,360h-4.7v4.7h4.7V360z M171.7,360L171.7,360L171.7,360L171.7,360L171.7,360z M171.7,360
	L171.7,360L171.7,360L171.7,360L171.7,360z M176.4,360h-4.7v4.7h4.7V360z M201.5,360h-4.7v4.7h4.7V360z M121.5,385.1L121.5,385.1
	L121.5,385.1L121.5,385.1L121.5,385.1z M121.5,385.1L121.5,385.1L121.5,385.1L121.5,385.1L121.5,385.1z M126.2,385.1h-4.7v4.7h4.7
	V385.1z M151.3,385.1h-4.7v4.7h4.7V385.1z M171.7,385.1L171.7,385.1L171.7,385.1L171.7,385.1L171.7,385.1z M171.7,385.1L171.7,385.1
	L171.7,385.1L171.7,385.1L171.7,385.1z M176.4,385.1h-4.7v4.7h4.7V385.1z M201.5,385.1h-4.7v4.7h4.7V385.1z M21.2,410.2L21.2,410.2
	L21.2,410.2L21.2,410.2L21.2,410.2z M21.2,410.2L21.2,410.2L21.2,410.2L21.2,410.2L21.2,410.2z M25.9,410.2h-4.7v4.7h4.7V410.2z
	 M51,410.2h-4.7v4.7H51V410.2z M71.4,410.2L71.4,410.2L71.4,410.2L71.4,410.2L71.4,410.2z M71.4,410.2L71.4,410.2L71.4,410.2
	L71.4,410.2L71.4,410.2z M76.1,410.2h-4.7v4.7h4.7V410.2z M101.2,410.2h-4.7v4.7h4.7V410.2z M21.2,435.3L21.2,435.3L21.2,435.3
	L21.2,435.3L21.2,435.3z M21.2,435.3L21.2,435.3L21.2,435.3L21.2,435.3L21.2,435.3z M25.9,435.3h-4.7v4.7h4.7V435.3z M51,435.3h-4.7
	v4.7H51V435.3z M71.4,435.3L71.4,435.3L71.4,435.3L71.4,435.3L71.4,435.3z M71.4,435.3L71.4,435.3L71.4,435.3L71.4,435.3L71.4,435.3
	z M76.1,435.3h-4.7v4.7h4.7V435.3z M101.2,435.3h-4.7v4.7h4.7V435.3z M121.5,410.2L121.5,410.2L121.5,410.2L121.5,410.2L121.5,410.2
	z M121.5,410.2L121.5,410.2L121.5,410.2L121.5,410.2L121.5,410.2z M126.2,410.2h-4.7v4.7h4.7V410.2z M151.3,410.2h-4.7v4.7h4.7
	V410.2z M171.7,410.2L171.7,410.2L171.7,410.2L171.7,410.2L171.7,410.2z M171.7,410.2L171.7,410.2L171.7,410.2L171.7,410.2
	L171.7,410.2z M176.4,410.2h-4.7v4.7h4.7V410.2z M201.5,410.2h-4.7v4.7h4.7V410.2z M121.5,435.3L121.5,435.3L121.5,435.3
	L121.5,435.3L121.5,435.3z M121.5,435.3L121.5,435.3L121.5,435.3L121.5,435.3L121.5,435.3z M126.2,435.3h-4.7v4.7h4.7V435.3z
	 M151.3,435.3h-4.7v4.7h4.7V435.3z M171.7,435.3L171.7,435.3L171.7,435.3L171.7,435.3L171.7,435.3z M171.7,435.3L171.7,435.3
	L171.7,435.3L171.7,435.3L171.7,435.3z M176.4,435.3h-4.7v4.7h4.7V435.3z M201.5,435.3h-4.7v4.7h4.7V435.3z M214.1,297.3h-4.7v4.7
	h4.7V297.3z M239.1,297.3h-4.7v4.7h4.7V297.3z M209.4,322.4L209.4,322.4L209.4,322.4L209.4,322.4L209.4,322.4z M209.4,322.4
	L209.4,322.4L209.4,322.4L209.4,322.4L209.4,322.4z M214.1,322.4h-4.7v4.7h4.7V322.4z M239.1,322.4h-4.7v4.7h4.7V322.4z
	 M264.2,297.3h-4.7v4.7h4.7V297.3z M289.3,297.3h-4.7v4.7h4.7V297.3z M314.4,297.3h-4.7v4.7h4.7V297.3z M259.5,322.4L259.5,322.4
	L259.5,322.4L259.5,322.4L259.5,322.4z M259.5,322.4L259.5,322.4L259.5,322.4L259.5,322.4L259.5,322.4z M264.2,322.4h-4.7v4.7h4.7
	V322.4z M289.3,322.4h-4.7v4.7h4.7V322.4z M309.7,322.4L309.7,322.4L309.7,322.4L309.7,322.4L309.7,322.4z M309.7,322.4L309.7,322.4
	L309.7,322.4L309.7,322.4L309.7,322.4z M314.4,322.4h-4.7v4.7h4.7V322.4z M221.9,309.8L221.9,309.8L221.9,309.8L221.9,309.8
	L221.9,309.8z M221.9,309.8L221.9,309.8L221.9,309.8L221.9,309.8L221.9,309.8z M226.6,309.8h-4.7v4.7h4.7V309.8z M251.7,309.8H247
	v4.7h4.7V309.8z M221.9,334.9L221.9,334.9L221.9,334.9L221.9,334.9L221.9,334.9z M221.9,334.9L221.9,334.9L221.9,334.9L221.9,334.9
	L221.9,334.9z M226.6,334.9h-4.7v4.7h4.7V334.9z M251.7,334.9H247v4.7h4.7V334.9z M272.1,309.8L272.1,309.8L272.1,309.8L272.1,309.8
	L272.1,309.8z M272.1,309.8L272.1,309.8L272.1,309.8L272.1,309.8L272.1,309.8z M276.8,309.8h-4.7v4.7h4.7V309.8z M301.9,309.8h-4.7
	v4.7h4.7V309.8z M272.1,334.9L272.1,334.9L272.1,334.9L272.1,334.9L272.1,334.9z M272.1,334.9L272.1,334.9L272.1,334.9L272.1,334.9
	L272.1,334.9z M276.8,334.9h-4.7v4.7h4.7V334.9z M301.9,334.9h-4.7v4.7h4.7V334.9z M214.1,347.5h-4.7v4.7h4.7V347.5z M239.1,347.5
	h-4.7v4.7h4.7V347.5z M209.4,372.6L209.4,372.6L209.4,372.6L209.4,372.6L209.4,372.6z M209.4,372.6L209.4,372.6L209.4,372.6
	L209.4,372.6L209.4,372.6z M214.1,372.6h-4.7v4.7h4.7V372.6z M239.1,372.6h-4.7v4.7h4.7V372.6z M264.2,347.5h-4.7v4.7h4.7V347.5z
	 M289.3,347.5h-4.7v4.7h4.7V347.5z M314.4,347.5h-4.7v4.7h4.7V347.5z M259.5,372.6L259.5,372.6L259.5,372.6L259.5,372.6L259.5,372.6
	z M259.5,372.6L259.5,372.6L259.5,372.6L259.5,372.6L259.5,372.6z M264.2,372.6h-4.7v4.7h4.7V372.6z M289.3,372.6h-4.7v4.7h4.7
	V372.6z M309.7,372.6L309.7,372.6L309.7,372.6L309.7,372.6L309.7,372.6z M309.7,372.6L309.7,372.6L309.7,372.6L309.7,372.6
	L309.7,372.6z M314.4,372.6h-4.7v4.7h4.7V372.6z M209.4,397.6L209.4,397.6L209.4,397.6L209.4,397.6L209.4,397.6z M209.4,397.6
	L209.4,397.6L209.4,397.6L209.4,397.6L209.4,397.6z M214.1,397.6h-4.7v4.7h4.7V397.6z M239.1,397.6h-4.7v4.7h4.7V397.6z
	 M209.4,422.7L209.4,422.7L209.4,422.7L209.4,422.7L209.4,422.7z M209.4,422.7L209.4,422.7L209.4,422.7L209.4,422.7L209.4,422.7z
	 M214.1,422.7h-4.7v4.7h4.7V422.7z M239.1,422.7h-4.7v4.7h4.7V422.7z M209.4,447.8L209.4,447.8L209.4,447.8L209.4,447.8L209.4,447.8
	z M209.4,447.8L209.4,447.8L209.4,447.8L209.4,447.8L209.4,447.8z M214.1,447.8h-4.7v4.7h4.7V447.8z M239.1,447.8h-4.7v4.7h4.7
	V447.8z M259.5,397.6L259.5,397.6L259.5,397.6L259.5,397.6L259.5,397.6z M259.5,397.6L259.5,397.6L259.5,397.6L259.5,397.6
	L259.5,397.6z M264.2,397.6h-4.7v4.7h4.7V397.6z M289.3,397.6h-4.7v4.7h4.7V397.6z M309.7,397.6L309.7,397.6L309.7,397.6
	L309.7,397.6L309.7,397.6z M309.7,397.6L309.7,397.6L309.7,397.6L309.7,397.6L309.7,397.6z M314.4,397.6h-4.7v4.7h4.7V397.6z
	 M259.5,422.7L259.5,422.7L259.5,422.7L259.5,422.7L259.5,422.7z M259.5,422.7L259.5,422.7L259.5,422.7L259.5,422.7L259.5,422.7z
	 M264.2,422.7h-4.7v4.7h4.7V422.7z M309.7,422.7L309.7,422.7L309.7,422.7L309.7,422.7L309.7,422.7z M314.4,422.7h-4.7v4.7h4.7V422.7
	z M259.5,447.8L259.5,447.8L259.5,447.8L259.5,447.8L259.5,447.8z M259.5,447.8L259.5,447.8L259.5,447.8L259.5,447.8L259.5,447.8z
	 M264.2,447.8h-4.7v4.7h4.7V447.8z M289.3,447.8h-4.7v4.7h4.7V447.8z M309.7,447.8L309.7,447.8L309.7,447.8L309.7,447.8L309.7,447.8
	z M309.7,447.8L309.7,447.8L309.7,447.8L309.7,447.8L309.7,447.8z M314.4,447.8h-4.7v4.7h4.7V447.8z M221.9,360L221.9,360L221.9,360
	L221.9,360L221.9,360z M221.9,360L221.9,360L221.9,360L221.9,360L221.9,360z M226.6,360h-4.7v4.7h4.7V360z M251.7,360H247v4.7h4.7
	V360z M221.9,385.1L221.9,385.1L221.9,385.1L221.9,385.1L221.9,385.1z M221.9,385.1L221.9,385.1L221.9,385.1L221.9,385.1
	L221.9,385.1z M226.6,385.1h-4.7v4.7h4.7V385.1z M251.7,385.1H247v4.7h4.7V385.1z M272.1,360L272.1,360L272.1,360L272.1,360
	L272.1,360z M272.1,360L272.1,360L272.1,360L272.1,360L272.1,360z M276.8,360h-4.7v4.7h4.7V360z M301.9,360h-4.7v4.7h4.7V360z
	 M272.1,385.1L272.1,385.1L272.1,385.1L272.1,385.1L272.1,385.1z M272.1,385.1L272.1,385.1L272.1,385.1L272.1,385.1L272.1,385.1z
	 M276.8,385.1h-4.7v4.7h4.7V385.1z M301.9,385.1h-4.7v4.7h4.7V385.1z M221.9,410.2L221.9,410.2L221.9,410.2L221.9,410.2L221.9,410.2
	z M221.9,410.2L221.9,410.2L221.9,410.2L221.9,410.2L221.9,410.2z M226.6,410.2h-4.7v4.7h4.7V410.2z M251.7,410.2H247v4.7h4.7V410.2
	z M221.9,435.3L221.9,435.3L221.9,435.3L221.9,435.3L221.9,435.3z M221.9,435.3L221.9,435.3L221.9,435.3L221.9,435.3L221.9,435.3z
	 M226.6,435.3h-4.7v4.7h4.7V435.3z M251.7,435.3H247v4.7h4.7V435.3z M301.9,410.2h-4.7v4.7h4.7V410.2z M272.1,435.3L272.1,435.3
	L272.1,435.3L272.1,435.3L272.1,435.3z M272.1,435.3L272.1,435.3L272.1,435.3L272.1,435.3L272.1,435.3z M8.6,33.9L8.6,33.9L8.6,33.9
	L8.6,33.9L8.6,33.9z M8.6,33.9L8.6,33.9L8.6,33.9L8.6,33.9L8.6,33.9z M13.3,33.9H8.6v4.7h4.7V33.9z M38.4,33.9h-4.7v4.7h4.7V33.9z
	 M58.8,33.9L58.8,33.9L58.8,33.9L58.8,33.9L58.8,33.9z M58.8,33.9L58.8,33.9L58.8,33.9L58.8,33.9L58.8,33.9z M63.5,33.9h-4.7v4.7
	h4.7V33.9z M88.6,33.9h-4.7v4.7h4.7V33.9z M109,33.9L109,33.9L109,33.9L109,33.9L109,33.9z M109,33.9L109,33.9L109,33.9L109,33.9
	L109,33.9z M113.7,33.9H109v4.7h4.7V33.9z M138.8,33.9h-4.7v4.7h4.7V33.9z M159.2,33.9L159.2,33.9L159.2,33.9L159.2,33.9L159.2,33.9
	z M159.2,33.9L159.2,33.9L159.2,33.9L159.2,33.9L159.2,33.9z M163.9,33.9h-4.7v4.7h4.7V33.9z M189,33.9h-4.7v4.7h4.7V33.9z
	 M8.6,58.9L8.6,58.9L8.6,58.9L8.6,58.9L8.6,58.9z M8.6,58.9L8.6,58.9L8.6,58.9L8.6,58.9L8.6,58.9z M13.3,58.9H8.6v4.7h4.7V58.9z
	 M38.4,58.9h-4.7v4.7h4.7V58.9z M58.8,58.9L58.8,58.9L58.8,58.9L58.8,58.9L58.8,58.9z M58.8,58.9L58.8,58.9L58.8,58.9L58.8,58.9
	L58.8,58.9z M63.5,58.9h-4.7v4.7h4.7V58.9z M88.6,58.9h-4.7v4.7h4.7V58.9z M8.6,84L8.6,84L8.6,84L8.6,84L8.6,84z M8.6,84L8.6,84
	L8.6,84L8.6,84L8.6,84z M13.3,84H8.6v4.7h4.7V84z M38.4,84h-4.7v4.7h4.7V84z M58.8,84L58.8,84L58.8,84L58.8,84L58.8,84z M58.8,84
	L58.8,84L58.8,84L58.8,84L58.8,84z M63.5,84h-4.7v4.7h4.7V84z M88.6,84h-4.7v4.7h4.7V84z M8.6,109.1L8.6,109.1L8.6,109.1L8.6,109.1
	L8.6,109.1z M8.6,109.1L8.6,109.1L8.6,109.1L8.6,109.1L8.6,109.1z M13.3,109.1H8.6v4.7h4.7V109.1z M38.4,109.1h-4.7v4.7h4.7V109.1z
	 M58.8,109.1L58.8,109.1L58.8,109.1L58.8,109.1L58.8,109.1z M58.8,109.1L58.8,109.1L58.8,109.1L58.8,109.1L58.8,109.1z M63.5,109.1
	h-4.7v4.7h4.7V109.1z M88.6,109.1h-4.7v4.7h4.7V109.1z M109,58.9L109,58.9L109,58.9L109,58.9L109,58.9z M109,58.9L109,58.9L109,58.9
	L109,58.9L109,58.9z M113.7,58.9H109v4.7h4.7V58.9z M138.8,58.9h-4.7v4.7h4.7V58.9z M159.2,58.9L159.2,58.9L159.2,58.9L159.2,58.9
	L159.2,58.9z M159.2,58.9L159.2,58.9L159.2,58.9L159.2,58.9L159.2,58.9z M163.9,58.9h-4.7v4.7h4.7V58.9z M189,58.9h-4.7v4.7h4.7
	V58.9z M109,84L109,84L109,84L109,84L109,84z M109,84L109,84L109,84L109,84L109,84z M113.7,84H109v4.7h4.7V84z M138.8,84h-4.7v4.7
	h4.7V84z M159.2,84L159.2,84L159.2,84L159.2,84L159.2,84z M159.2,84L159.2,84L159.2,84L159.2,84L159.2,84z M163.9,84h-4.7v4.7h4.7
	V84z M189,84h-4.7v4.7h4.7V84z M109,109.1L109,109.1L109,109.1L109,109.1L109,109.1z M109,109.1L109,109.1L109,109.1L109,109.1
	L109,109.1z M113.7,109.1H109v4.7h4.7V109.1z M138.8,109.1h-4.7v4.7h4.7V109.1z M159.2,109.1L159.2,109.1L159.2,109.1L159.2,109.1
	L159.2,109.1z M159.2,109.1L159.2,109.1L159.2,109.1L159.2,109.1L159.2,109.1z M163.9,109.1h-4.7v4.7h4.7V109.1z M189,109.1h-4.7
	v4.7h4.7V109.1z M25.9,21.3h-4.7V26h4.7V21.3z M51,21.3h-4.7V26H51V21.3z M76.1,21.3h-4.7V26h4.7V21.3z M101.2,21.3h-4.7V26h4.7
	V21.3z M21.2,46.4L21.2,46.4L21.2,46.4L21.2,46.4L21.2,46.4z M21.2,46.4L21.2,46.4L21.2,46.4L21.2,46.4L21.2,46.4z M25.9,46.4h-4.7
	v4.7h4.7V46.4z M51,46.4h-4.7v4.7H51V46.4z M71.4,46.4L71.4,46.4L71.4,46.4L71.4,46.4L71.4,46.4z M71.4,46.4L71.4,46.4L71.4,46.4
	L71.4,46.4L71.4,46.4z M76.1,46.4h-4.7v4.7h4.7V46.4z M101.2,46.4h-4.7v4.7h4.7V46.4z M126.2,21.3h-4.7V26h4.7V21.3z M151.3,21.3
	h-4.7V26h4.7V21.3z M176.4,21.3h-4.7V26h4.7V21.3z M201.5,21.3h-4.7V26h4.7V21.3z M121.5,46.4L121.5,46.4L121.5,46.4L121.5,46.4
	L121.5,46.4z M121.5,46.4L121.5,46.4L121.5,46.4L121.5,46.4L121.5,46.4z M126.2,46.4h-4.7v4.7h4.7V46.4z M151.3,46.4h-4.7v4.7h4.7
	V46.4z M171.7,46.4L171.7,46.4L171.7,46.4L171.7,46.4L171.7,46.4z M171.7,46.4L171.7,46.4L171.7,46.4L171.7,46.4L171.7,46.4z
	 M176.4,46.4h-4.7v4.7h4.7V46.4z M201.5,46.4h-4.7v4.7h4.7V46.4z M21.2,71.5L21.2,71.5L21.2,71.5L21.2,71.5L21.2,71.5z M21.2,71.5
	L21.2,71.5L21.2,71.5L21.2,71.5L21.2,71.5z M25.9,71.5h-4.7v4.7h4.7V71.5z M51,71.5h-4.7v4.7H51V71.5z M71.4,71.5L71.4,71.5
	L71.4,71.5L71.4,71.5L71.4,71.5z M71.4,71.5L71.4,71.5L71.4,71.5L71.4,71.5L71.4,71.5z M76.1,71.5h-4.7v4.7h4.7V71.5z M101.2,71.5
	h-4.7v4.7h4.7V71.5z M21.2,96.6L21.2,96.6L21.2,96.6L21.2,96.6L21.2,96.6z M21.2,96.6L21.2,96.6L21.2,96.6L21.2,96.6L21.2,96.6z
	 M25.9,96.6h-4.7v4.7h4.7V96.6z M51,96.6h-4.7v4.7H51V96.6z M71.4,96.6L71.4,96.6L71.4,96.6L71.4,96.6L71.4,96.6z M71.4,96.6
	L71.4,96.6L71.4,96.6L71.4,96.6L71.4,96.6z M76.1,96.6h-4.7v4.7h4.7V96.6z M101.2,96.6h-4.7v4.7h4.7V96.6z M21.2,121.7L21.2,121.7
	L21.2,121.7L21.2,121.7L21.2,121.7z M21.2,121.7L21.2,121.7L21.2,121.7L21.2,121.7L21.2,121.7z M25.9,121.7h-4.7v4.7h4.7V121.7z
	 M51,121.7h-4.7v4.7H51V121.7z M71.4,121.7L71.4,121.7L71.4,121.7L71.4,121.7L71.4,121.7z M71.4,121.7L71.4,121.7L71.4,121.7
	L71.4,121.7L71.4,121.7z M76.1,121.7h-4.7v4.7h4.7V121.7z M101.2,121.7h-4.7v4.7h4.7V121.7z M121.5,71.5L121.5,71.5L121.5,71.5
	L121.5,71.5L121.5,71.5z M121.5,71.5L121.5,71.5L121.5,71.5L121.5,71.5L121.5,71.5z M126.2,71.5h-4.7v4.7h4.7V71.5z M151.3,71.5
	h-4.7v4.7h4.7V71.5z M171.7,71.5L171.7,71.5L171.7,71.5L171.7,71.5L171.7,71.5z M171.7,71.5L171.7,71.5L171.7,71.5L171.7,71.5
	L171.7,71.5z M176.4,71.5h-4.7v4.7h4.7V71.5z M201.5,71.5h-4.7v4.7h4.7V71.5z M121.5,96.6L121.5,96.6L121.5,96.6L121.5,96.6
	L121.5,96.6z M121.5,96.6L121.5,96.6L121.5,96.6L121.5,96.6L121.5,96.6z M126.2,96.6h-4.7v4.7h4.7V96.6z M151.3,96.6h-4.7v4.7h4.7
	V96.6z M171.7,96.6L171.7,96.6L171.7,96.6L171.7,96.6L171.7,96.6z M171.7,96.6L171.7,96.6L171.7,96.6L171.7,96.6L171.7,96.6z
	 M176.4,96.6h-4.7v4.7h4.7V96.6z M201.5,96.6h-4.7v4.7h4.7V96.6z M121.5,121.7L121.5,121.7L121.5,121.7L121.5,121.7L121.5,121.7z
	 M121.5,121.7L121.5,121.7L121.5,121.7L121.5,121.7L121.5,121.7z M126.2,121.7h-4.7v4.7h4.7V121.7z M151.3,121.7h-4.7v4.7h4.7V121.7
	z M171.7,121.7L171.7,121.7L171.7,121.7L171.7,121.7L171.7,121.7z M171.7,121.7L171.7,121.7L171.7,121.7L171.7,121.7L171.7,121.7z
	 M176.4,121.7h-4.7v4.7h4.7V121.7z M201.5,121.7h-4.7v4.7h4.7V121.7z M13.3,134.2H8.6v4.7h4.7V134.2z M38.4,134.2h-4.7v4.7h4.7
	V134.2z M63.5,134.2h-4.7v4.7h4.7V134.2z M88.6,134.2h-4.7v4.7h4.7V134.2z M8.6,159.3L8.6,159.3L8.6,159.3L8.6,159.3L8.6,159.3z
	 M8.6,159.3L8.6,159.3L8.6,159.3L8.6,159.3L8.6,159.3z M13.3,159.3H8.6v4.7h4.7V159.3z M38.4,159.3h-4.7v4.7h4.7V159.3z M58.8,159.3
	L58.8,159.3L58.8,159.3L58.8,159.3L58.8,159.3z M58.8,159.3L58.8,159.3L58.8,159.3L58.8,159.3L58.8,159.3z M63.5,159.3h-4.7v4.7h4.7
	V159.3z M88.6,159.3h-4.7v4.7h4.7V159.3z M113.7,134.2H109v4.7h4.7V134.2z M138.8,134.2h-4.7v4.7h4.7V134.2z M163.9,134.2h-4.7v4.7
	h4.7V134.2z M189,134.2h-4.7v4.7h4.7V134.2z M109,159.3L109,159.3L109,159.3L109,159.3L109,159.3z M109,159.3L109,159.3L109,159.3
	L109,159.3L109,159.3z M113.7,159.3H109v4.7h4.7V159.3z M138.8,159.3h-4.7v4.7h4.7V159.3z M159.2,159.3L159.2,159.3L159.2,159.3
	L159.2,159.3L159.2,159.3z M159.2,159.3L159.2,159.3L159.2,159.3L159.2,159.3L159.2,159.3z M163.9,159.3h-4.7v4.7h4.7V159.3z
	 M189,159.3h-4.7v4.7h4.7V159.3z M8.6,184.4L8.6,184.4L8.6,184.4L8.6,184.4L8.6,184.4z M8.6,184.4L8.6,184.4L8.6,184.4L8.6,184.4
	L8.6,184.4z M13.3,184.4H8.6v4.7h4.7V184.4z M38.4,184.4h-4.7v4.7h4.7V184.4z M58.8,184.4L58.8,184.4L58.8,184.4L58.8,184.4
	L58.8,184.4z M58.8,184.4L58.8,184.4L58.8,184.4L58.8,184.4L58.8,184.4z M63.5,184.4h-4.7v4.7h4.7V184.4z M88.6,184.4h-4.7v4.7h4.7
	V184.4z M8.6,209.5L8.6,209.5L8.6,209.5L8.6,209.5L8.6,209.5z M8.6,209.5L8.6,209.5L8.6,209.5L8.6,209.5L8.6,209.5z M13.3,209.5H8.6
	v4.7h4.7V209.5z M38.4,209.5h-4.7v4.7h4.7V209.5z M58.8,209.5L58.8,209.5L58.8,209.5L58.8,209.5L58.8,209.5z M58.8,209.5L58.8,209.5
	L58.8,209.5L58.8,209.5L58.8,209.5z M63.5,209.5h-4.7v4.7h4.7V209.5z M88.6,209.5h-4.7v4.7h4.7V209.5z M8.6,234.6L8.6,234.6
	L8.6,234.6L8.6,234.6L8.6,234.6z M8.6,234.6L8.6,234.6L8.6,234.6L8.6,234.6L8.6,234.6z M13.3,234.6H8.6v4.7h4.7V234.6z M38.4,234.6
	h-4.7v4.7h4.7V234.6z M58.8,234.6L58.8,234.6L58.8,234.6L58.8,234.6L58.8,234.6z M58.8,234.6L58.8,234.6L58.8,234.6L58.8,234.6
	L58.8,234.6z M63.5,234.6h-4.7v4.7h4.7V234.6z M88.6,234.6h-4.7v4.7h4.7V234.6z M109,184.4L109,184.4L109,184.4L109,184.4L109,184.4
	z M109,184.4L109,184.4L109,184.4L109,184.4L109,184.4z M113.7,184.4H109v4.7h4.7V184.4z M138.8,184.4h-4.7v4.7h4.7V184.4z
	 M159.2,184.4L159.2,184.4L159.2,184.4L159.2,184.4L159.2,184.4z M159.2,184.4L159.2,184.4L159.2,184.4L159.2,184.4L159.2,184.4z
	 M163.9,184.4h-4.7v4.7h4.7V184.4z M189,184.4h-4.7v4.7h4.7V184.4z M109,209.5L109,209.5L109,209.5L109,209.5L109,209.5z M109,209.5
	L109,209.5L109,209.5L109,209.5L109,209.5z M113.7,209.5H109v4.7h4.7V209.5z M138.8,209.5h-4.7v4.7h4.7V209.5z M159.2,209.5
	L159.2,209.5L159.2,209.5L159.2,209.5L159.2,209.5z M159.2,209.5L159.2,209.5L159.2,209.5L159.2,209.5L159.2,209.5z M163.9,209.5
	h-4.7v4.7h4.7V209.5z M189,209.5h-4.7v4.7h4.7V209.5z M109,234.6L109,234.6L109,234.6L109,234.6L109,234.6z M109,234.6L109,234.6
	L109,234.6L109,234.6L109,234.6z M113.7,234.6H109v4.7h4.7V234.6z M138.8,234.6h-4.7v4.7h4.7V234.6z M159.2,234.6L159.2,234.6
	L159.2,234.6L159.2,234.6L159.2,234.6z M159.2,234.6L159.2,234.6L159.2,234.6L159.2,234.6L159.2,234.6z M163.9,234.6h-4.7v4.7h4.7
	V234.6z M189,234.6h-4.7v4.7h4.7V234.6z M21.2,146.8L21.2,146.8L21.2,146.8L21.2,146.8L21.2,146.8z M21.2,146.8L21.2,146.8
	L21.2,146.8L21.2,146.8L21.2,146.8z M25.9,146.8h-4.7v4.7h4.7V146.8z M51,146.8h-4.7v4.7H51V146.8z M71.4,146.8L71.4,146.8
	L71.4,146.8L71.4,146.8L71.4,146.8z M71.4,146.8L71.4,146.8L71.4,146.8L71.4,146.8L71.4,146.8z M76.1,146.8h-4.7v4.7h4.7V146.8z
	 M101.2,146.8h-4.7v4.7h4.7V146.8z M21.2,171.8L21.2,171.8L21.2,171.8L21.2,171.8L21.2,171.8z M21.2,171.8L21.2,171.8L21.2,171.8
	L21.2,171.8L21.2,171.8z M25.9,171.8h-4.7v4.7h4.7V171.8z M51,171.8h-4.7v4.7H51V171.8z M71.4,171.8L71.4,171.8L71.4,171.8
	L71.4,171.8L71.4,171.8z M71.4,171.8L71.4,171.8L71.4,171.8L71.4,171.8L71.4,171.8z M76.1,171.8h-4.7v4.7h4.7V171.8z M101.2,171.8
	h-4.7v4.7h4.7V171.8z M121.5,146.8L121.5,146.8L121.5,146.8L121.5,146.8L121.5,146.8z M121.5,146.8L121.5,146.8L121.5,146.8
	L121.5,146.8L121.5,146.8z M126.2,146.8h-4.7v4.7h4.7V146.8z M151.3,146.8h-4.7v4.7h4.7V146.8z M171.7,146.8L171.7,146.8
	L171.7,146.8L171.7,146.8L171.7,146.8z M171.7,146.8L171.7,146.8L171.7,146.8L171.7,146.8L171.7,146.8z M176.4,146.8h-4.7v4.7h4.7
	V146.8z M201.5,146.8h-4.7v4.7h4.7V146.8z M121.5,171.8L121.5,171.8L121.5,171.8L121.5,171.8L121.5,171.8z M121.5,171.8L121.5,171.8
	L121.5,171.8L121.5,171.8L121.5,171.8z M126.2,171.8h-4.7v4.7h4.7V171.8z M151.3,171.8h-4.7v4.7h4.7V171.8z M171.7,171.8
	L171.7,171.8L171.7,171.8L171.7,171.8L171.7,171.8z M171.7,171.8L171.7,171.8L171.7,171.8L171.7,171.8L171.7,171.8z M176.4,171.8
	h-4.7v4.7h4.7V171.8z M201.5,171.8h-4.7v4.7h4.7V171.8z M21.2,196.9L21.2,196.9L21.2,196.9L21.2,196.9L21.2,196.9z M21.2,196.9
	L21.2,196.9L21.2,196.9L21.2,196.9L21.2,196.9z M25.9,196.9h-4.7v4.7h4.7V196.9z M51,196.9h-4.7v4.7H51V196.9z M71.4,196.9
	L71.4,196.9L71.4,196.9L71.4,196.9L71.4,196.9z M71.4,196.9L71.4,196.9L71.4,196.9L71.4,196.9L71.4,196.9z M76.1,196.9h-4.7v4.7h4.7
	V196.9z M101.2,196.9h-4.7v4.7h4.7V196.9z M21.2,222L21.2,222L21.2,222L21.2,222L21.2,222z M21.2,222L21.2,222L21.2,222L21.2,222
	L21.2,222z M25.9,222h-4.7v4.7h4.7V222z M51,222h-4.7v4.7H51V222z M71.4,222L71.4,222L71.4,222L71.4,222L71.4,222z M71.4,222
	L71.4,222L71.4,222L71.4,222L71.4,222z M76.1,222h-4.7v4.7h4.7V222z M101.2,222h-4.7v4.7h4.7V222z M21.2,247.1L21.2,247.1
	L21.2,247.1L21.2,247.1L21.2,247.1z M21.2,247.1L21.2,247.1L21.2,247.1L21.2,247.1L21.2,247.1z M25.9,247.1h-4.7v4.7h4.7V247.1z
	 M51,247.1h-4.7v4.7H51V247.1z M71.4,247.1L71.4,247.1L71.4,247.1L71.4,247.1L71.4,247.1z M71.4,247.1L71.4,247.1L71.4,247.1
	L71.4,247.1L71.4,247.1z M76.1,247.1h-4.7v4.7h4.7V247.1z M101.2,247.1h-4.7v4.7h4.7V247.1z M121.5,196.9L121.5,196.9L121.5,196.9
	L121.5,196.9L121.5,196.9z M121.5,196.9L121.5,196.9L121.5,196.9L121.5,196.9L121.5,196.9z M126.2,196.9h-4.7v4.7h4.7V196.9z
	 M151.3,196.9h-4.7v4.7h4.7V196.9z M171.7,196.9L171.7,196.9L171.7,196.9L171.7,196.9L171.7,196.9z M171.7,196.9L171.7,196.9
	L171.7,196.9L171.7,196.9L171.7,196.9z M176.4,196.9h-4.7v4.7h4.7V196.9z M201.5,196.9h-4.7v4.7h4.7V196.9z M121.5,222L121.5,222
	L121.5,222L121.5,222L121.5,222z M121.5,222L121.5,222L121.5,222L121.5,222L121.5,222z M126.2,222h-4.7v4.7h4.7V222z M151.3,222
	h-4.7v4.7h4.7V222z M171.7,222L171.7,222L171.7,222L171.7,222L171.7,222z M171.7,222L171.7,222L171.7,222L171.7,222L171.7,222z
	 M176.4,222h-4.7v4.7h4.7V222z M201.5,222h-4.7v4.7h4.7V222z M121.5,247.1L121.5,247.1L121.5,247.1L121.5,247.1L121.5,247.1z
	 M121.5,247.1L121.5,247.1L121.5,247.1L121.5,247.1L121.5,247.1z M126.2,247.1h-4.7v4.7h4.7V247.1z M151.3,247.1h-4.7v4.7h4.7V247.1
	z M171.7,247.1L171.7,247.1L171.7,247.1L171.7,247.1L171.7,247.1z M171.7,247.1L171.7,247.1L171.7,247.1L171.7,247.1L171.7,247.1z
	 M176.4,247.1h-4.7v4.7h4.7V247.1z M201.5,247.1h-4.7v4.7h4.7V247.1z M13.3,259.7H8.6v4.7h4.7V259.7z M38.4,259.7h-4.7v4.7h4.7
	V259.7z M63.5,259.7h-4.7v4.7h4.7V259.7z M88.6,259.7h-4.7v4.7h4.7V259.7z M8.6,284.7L8.6,284.7L8.6,284.7L8.6,284.7L8.6,284.7z
	 M8.6,284.7L8.6,284.7L8.6,284.7L8.6,284.7L8.6,284.7z M13.3,284.7H8.6v4.7h4.7V284.7z M38.4,284.7h-4.7v4.7h4.7V284.7z M58.8,284.7
	L58.8,284.7L58.8,284.7L58.8,284.7L58.8,284.7z M58.8,284.7L58.8,284.7L58.8,284.7L58.8,284.7L58.8,284.7z M63.5,284.7h-4.7v4.7h4.7
	V284.7z M88.6,284.7h-4.7v4.7h4.7V284.7z M113.7,259.7H109v4.7h4.7V259.7z M138.8,259.7h-4.7v4.7h4.7V259.7z M163.9,259.7h-4.7v4.7
	h4.7V259.7z M189,259.7h-4.7v4.7h4.7V259.7z M109,284.7L109,284.7L109,284.7L109,284.7L109,284.7z M109,284.7L109,284.7L109,284.7
	L109,284.7L109,284.7z M113.7,284.7H109v4.7h4.7V284.7z M138.8,284.7h-4.7v4.7h4.7V284.7z M159.2,284.7L159.2,284.7L159.2,284.7
	L159.2,284.7L159.2,284.7z M159.2,284.7L159.2,284.7L159.2,284.7L159.2,284.7L159.2,284.7z M163.9,284.7h-4.7v4.7h4.7V284.7z
	 M189,284.7h-4.7v4.7h4.7V284.7z M8.6,309.8L8.6,309.8L8.6,309.8L8.6,309.8L8.6,309.8z M8.6,309.8L8.6,309.8L8.6,309.8L8.6,309.8
	L8.6,309.8z M58.8,309.8L58.8,309.8L58.8,309.8L58.8,309.8L58.8,309.8z M58.8,309.8L58.8,309.8L58.8,309.8L58.8,309.8L58.8,309.8z
	 M109,309.8L109,309.8L109,309.8L109,309.8L109,309.8z M109,309.8L109,309.8L109,309.8L109,309.8L109,309.8z M159.2,309.8
	L159.2,309.8L159.2,309.8L159.2,309.8L159.2,309.8z M159.2,309.8L159.2,309.8L159.2,309.8L159.2,309.8L159.2,309.8z M21.2,272.2
	L21.2,272.2L21.2,272.2L21.2,272.2L21.2,272.2z M21.2,272.2L21.2,272.2L21.2,272.2L21.2,272.2L21.2,272.2z M25.9,272.2h-4.7v4.7h4.7
	V272.2z M51,272.2h-4.7v4.7H51V272.2z M71.4,272.2L71.4,272.2L71.4,272.2L71.4,272.2L71.4,272.2z M71.4,272.2L71.4,272.2L71.4,272.2
	L71.4,272.2L71.4,272.2z M76.1,272.2h-4.7v4.7h4.7V272.2z M101.2,272.2h-4.7v4.7h4.7V272.2z M21.2,297.3L21.2,297.3L21.2,297.3
	L21.2,297.3L21.2,297.3z M21.2,297.3L21.2,297.3L21.2,297.3L21.2,297.3L21.2,297.3z M25.9,297.3h-4.7v4.7h4.7V297.3z M51,297.3h-4.7
	v4.7H51V297.3z M71.4,297.3L71.4,297.3L71.4,297.3L71.4,297.3L71.4,297.3z M71.4,297.3L71.4,297.3L71.4,297.3L71.4,297.3L71.4,297.3
	z M76.1,297.3h-4.7v4.7h4.7V297.3z M101.2,297.3h-4.7v4.7h4.7V297.3z M121.5,272.2L121.5,272.2L121.5,272.2L121.5,272.2L121.5,272.2
	z M121.5,272.2L121.5,272.2L121.5,272.2L121.5,272.2L121.5,272.2z M126.2,272.2h-4.7v4.7h4.7V272.2z M151.3,272.2h-4.7v4.7h4.7
	V272.2z M171.7,272.2L171.7,272.2L171.7,272.2L171.7,272.2L171.7,272.2z M171.7,272.2L171.7,272.2L171.7,272.2L171.7,272.2
	L171.7,272.2z M176.4,272.2h-4.7v4.7h4.7V272.2z M201.5,272.2h-4.7v4.7h4.7V272.2z M121.5,297.3L121.5,297.3L121.5,297.3
	L121.5,297.3L121.5,297.3z M121.5,297.3L121.5,297.3L121.5,297.3L121.5,297.3L121.5,297.3z M126.2,297.3h-4.7v4.7h4.7V297.3z
	 M151.3,297.3h-4.7v4.7h4.7V297.3z M171.7,297.3L171.7,297.3L171.7,297.3L171.7,297.3L171.7,297.3z M171.7,297.3L171.7,297.3
	L171.7,297.3L171.7,297.3L171.7,297.3z M176.4,297.3h-4.7v4.7h4.7V297.3z M201.5,297.3h-4.7v4.7h4.7V297.3z M209.4,33.9L209.4,33.9
	L209.4,33.9L209.4,33.9L209.4,33.9z M209.4,33.9L209.4,33.9L209.4,33.9L209.4,33.9L209.4,33.9z M214.1,33.9h-4.7v4.7h4.7V33.9z
	 M239.1,33.9h-4.7v4.7h4.7V33.9z M259.5,33.9L259.5,33.9L259.5,33.9L259.5,33.9L259.5,33.9z M259.5,33.9L259.5,33.9L259.5,33.9
	L259.5,33.9L259.5,33.9z M264.2,33.9h-4.7v4.7h4.7V33.9z M289.3,33.9h-4.7v4.7h4.7V33.9z M309.7,33.9L309.7,33.9L309.7,33.9
	L309.7,33.9L309.7,33.9z M309.7,33.9L309.7,33.9L309.7,33.9L309.7,33.9L309.7,33.9z M314.4,33.9h-4.7v4.7h4.7V33.9z M209.4,58.9
	L209.4,58.9L209.4,58.9L209.4,58.9L209.4,58.9z M209.4,58.9L209.4,58.9L209.4,58.9L209.4,58.9L209.4,58.9z M214.1,58.9h-4.7v4.7h4.7
	V58.9z M239.1,58.9h-4.7v4.7h4.7V58.9z M209.4,84L209.4,84L209.4,84L209.4,84L209.4,84z M209.4,84L209.4,84L209.4,84L209.4,84
	L209.4,84z M214.1,84h-4.7v4.7h4.7V84z M239.1,84h-4.7v4.7h4.7V84z M209.4,109.1L209.4,109.1L209.4,109.1L209.4,109.1L209.4,109.1z
	 M209.4,109.1L209.4,109.1L209.4,109.1L209.4,109.1L209.4,109.1z M214.1,109.1h-4.7v4.7h4.7V109.1z M239.1,109.1h-4.7v4.7h4.7V109.1
	z M259.5,58.9L259.5,58.9L259.5,58.9L259.5,58.9L259.5,58.9z M259.5,58.9L259.5,58.9L259.5,58.9L259.5,58.9L259.5,58.9z M264.2,58.9
	h-4.7v4.7h4.7V58.9z M289.3,58.9h-4.7v4.7h4.7V58.9z M309.7,58.9L309.7,58.9L309.7,58.9L309.7,58.9L309.7,58.9z M309.7,58.9
	L309.7,58.9L309.7,58.9L309.7,58.9L309.7,58.9z M314.4,58.9h-4.7v4.7h4.7V58.9z M259.5,84L259.5,84L259.5,84L259.5,84L259.5,84z
	 M259.5,84L259.5,84L259.5,84L259.5,84L259.5,84z M264.2,84h-4.7v4.7h4.7V84z M289.3,84h-4.7v4.7h4.7V84z M309.7,84L309.7,84
	L309.7,84L309.7,84L309.7,84z M309.7,84L309.7,84L309.7,84L309.7,84L309.7,84z M314.4,84h-4.7v4.7h4.7V84z M259.5,109.1L259.5,109.1
	L259.5,109.1L259.5,109.1L259.5,109.1z M259.5,109.1L259.5,109.1L259.5,109.1L259.5,109.1L259.5,109.1z M264.2,109.1h-4.7v4.7h4.7
	V109.1z M289.3,109.1h-4.7v4.7h4.7V109.1z M309.7,109.1L309.7,109.1L309.7,109.1L309.7,109.1L309.7,109.1z M309.7,109.1L309.7,109.1
	L309.7,109.1L309.7,109.1L309.7,109.1z M314.4,109.1h-4.7v4.7h4.7V109.1z M226.6,21.3h-4.7V26h4.7V21.3z M251.7,21.3H247V26h4.7
	V21.3z M221.9,46.4L221.9,46.4L221.9,46.4L221.9,46.4L221.9,46.4z M221.9,46.4L221.9,46.4L221.9,46.4L221.9,46.4L221.9,46.4z
	 M226.6,46.4h-4.7v4.7h4.7V46.4z M251.7,46.4H247v4.7h4.7V46.4z M276.8,21.3h-4.7V26h4.7V21.3z M301.9,21.3h-4.7V26h4.7V21.3z
	 M272.1,46.4L272.1,46.4L272.1,46.4L272.1,46.4L272.1,46.4z M272.1,46.4L272.1,46.4L272.1,46.4L272.1,46.4L272.1,46.4z M276.8,46.4
	h-4.7v4.7h4.7V46.4z M301.9,46.4h-4.7v4.7h4.7V46.4z M221.9,71.5L221.9,71.5L221.9,71.5L221.9,71.5L221.9,71.5z M221.9,71.5
	L221.9,71.5L221.9,71.5L221.9,71.5L221.9,71.5z M226.6,71.5h-4.7v4.7h4.7V71.5z M251.7,71.5H247v4.7h4.7V71.5z M221.9,96.6
	L221.9,96.6L221.9,96.6L221.9,96.6L221.9,96.6z M221.9,96.6L221.9,96.6L221.9,96.6L221.9,96.6L221.9,96.6z M226.6,96.6h-4.7v4.7h4.7
	V96.6z M251.7,96.6H247v4.7h4.7V96.6z M221.9,121.7L221.9,121.7L221.9,121.7L221.9,121.7L221.9,121.7z M221.9,121.7L221.9,121.7
	L221.9,121.7L221.9,121.7L221.9,121.7z M226.6,121.7h-4.7v4.7h4.7V121.7z M251.7,121.7H247v4.7h4.7V121.7z M272.1,71.5L272.1,71.5
	L272.1,71.5L272.1,71.5L272.1,71.5z M272.1,71.5L272.1,71.5L272.1,71.5L272.1,71.5L272.1,71.5z M276.8,71.5h-4.7v4.7h4.7V71.5z
	 M301.9,71.5h-4.7v4.7h4.7V71.5z M272.1,96.6L272.1,96.6L272.1,96.6L272.1,96.6L272.1,96.6z M272.1,96.6L272.1,96.6L272.1,96.6
	L272.1,96.6L272.1,96.6z M276.8,96.6h-4.7v4.7h4.7V96.6z M301.9,96.6h-4.7v4.7h4.7V96.6z M272.1,121.7L272.1,121.7L272.1,121.7
	L272.1,121.7L272.1,121.7z M272.1,121.7L272.1,121.7L272.1,121.7L272.1,121.7L272.1,121.7z M276.8,121.7h-4.7v4.7h4.7V121.7z
	 M301.9,121.7h-4.7v4.7h4.7V121.7z M214.1,134.2h-4.7v4.7h4.7V134.2z M239.1,134.2h-4.7v4.7h4.7V134.2z M209.4,159.3L209.4,159.3
	L209.4,159.3L209.4,159.3L209.4,159.3z M209.4,159.3L209.4,159.3L209.4,159.3L209.4,159.3L209.4,159.3z M214.1,159.3h-4.7v4.7h4.7
	V159.3z M239.1,159.3h-4.7v4.7h4.7V159.3z M264.2,134.2h-4.7v4.7h4.7V134.2z M289.3,134.2h-4.7v4.7h4.7V134.2z M314.4,134.2h-4.7
	v4.7h4.7V134.2z M259.5,159.3L259.5,159.3L259.5,159.3L259.5,159.3L259.5,159.3z M259.5,159.3L259.5,159.3L259.5,159.3L259.5,159.3
	L259.5,159.3z M264.2,159.3h-4.7v4.7h4.7V159.3z M289.3,159.3h-4.7v4.7h4.7V159.3z M309.7,159.3L309.7,159.3L309.7,159.3
	L309.7,159.3L309.7,159.3z M309.7,159.3L309.7,159.3L309.7,159.3L309.7,159.3L309.7,159.3z M314.4,159.3h-4.7v4.7h4.7V159.3z
	 M209.4,184.4L209.4,184.4L209.4,184.4L209.4,184.4L209.4,184.4z M209.4,184.4L209.4,184.4L209.4,184.4L209.4,184.4L209.4,184.4z
	 M214.1,184.4h-4.7v4.7h4.7V184.4z M239.1,184.4h-4.7v4.7h4.7V184.4z M209.4,209.5L209.4,209.5L209.4,209.5L209.4,209.5L209.4,209.5
	z M209.4,209.5L209.4,209.5L209.4,209.5L209.4,209.5L209.4,209.5z M214.1,209.5h-4.7v4.7h4.7V209.5z M239.1,209.5h-4.7v4.7h4.7
	V209.5z M209.4,234.6L209.4,234.6L209.4,234.6L209.4,234.6L209.4,234.6z M209.4,234.6L209.4,234.6L209.4,234.6L209.4,234.6
	L209.4,234.6z M214.1,234.6h-4.7v4.7h4.7V234.6z M239.1,234.6h-4.7v4.7h4.7V234.6z M259.5,184.4L259.5,184.4L259.5,184.4
	L259.5,184.4L259.5,184.4z M259.5,184.4L259.5,184.4L259.5,184.4L259.5,184.4L259.5,184.4z M264.2,184.4h-4.7v4.7h4.7V184.4z
	 M289.3,184.4h-4.7v4.7h4.7V184.4z M309.7,184.4L309.7,184.4L309.7,184.4L309.7,184.4L309.7,184.4z M309.7,184.4L309.7,184.4
	L309.7,184.4L309.7,184.4L309.7,184.4z M314.4,184.4h-4.7v4.7h4.7V184.4z M259.5,209.5L259.5,209.5L259.5,209.5L259.5,209.5
	L259.5,209.5z M259.5,209.5L259.5,209.5L259.5,209.5L259.5,209.5L259.5,209.5z M264.2,209.5h-4.7v4.7h4.7V209.5z M289.3,209.5h-4.7
	v4.7h4.7V209.5z M309.7,209.5L309.7,209.5L309.7,209.5L309.7,209.5L309.7,209.5z M309.7,209.5L309.7,209.5L309.7,209.5L309.7,209.5
	L309.7,209.5z M314.4,209.5h-4.7v4.7h4.7V209.5z M259.5,234.6L259.5,234.6L259.5,234.6L259.5,234.6L259.5,234.6z M259.5,234.6
	L259.5,234.6L259.5,234.6L259.5,234.6L259.5,234.6z M264.2,234.6h-4.7v4.7h4.7V234.6z M289.3,234.6h-4.7v4.7h4.7V234.6z
	 M309.7,234.6L309.7,234.6L309.7,234.6L309.7,234.6L309.7,234.6z M309.7,234.6L309.7,234.6L309.7,234.6L309.7,234.6L309.7,234.6z
	 M314.4,234.6h-4.7v4.7h4.7V234.6z M221.9,146.8L221.9,146.8L221.9,146.8L221.9,146.8L221.9,146.8z M221.9,146.8L221.9,146.8
	L221.9,146.8L221.9,146.8L221.9,146.8z M226.6,146.8h-4.7v4.7h4.7V146.8z M251.7,146.8H247v4.7h4.7V146.8z M221.9,171.8L221.9,171.8
	L221.9,171.8L221.9,171.8L221.9,171.8z M221.9,171.8L221.9,171.8L221.9,171.8L221.9,171.8L221.9,171.8z M226.6,171.8h-4.7v4.7h4.7
	V171.8z M251.7,171.8H247v4.7h4.7V171.8z M272.1,146.8L272.1,146.8L272.1,146.8L272.1,146.8L272.1,146.8z M272.1,146.8L272.1,146.8
	L272.1,146.8L272.1,146.8L272.1,146.8z M276.8,146.8h-4.7v4.7h4.7V146.8z M301.9,146.8h-4.7v4.7h4.7V146.8z M272.1,171.8
	L272.1,171.8L272.1,171.8L272.1,171.8L272.1,171.8z M272.1,171.8L272.1,171.8L272.1,171.8L272.1,171.8L272.1,171.8z M276.8,171.8
	h-4.7v4.7h4.7V171.8z M301.9,171.8h-4.7v4.7h4.7V171.8z M221.9,196.9L221.9,196.9L221.9,196.9L221.9,196.9L221.9,196.9z
	 M221.9,196.9L221.9,196.9L221.9,196.9L221.9,196.9L221.9,196.9z M226.6,196.9h-4.7v4.7h4.7V196.9z M251.7,196.9H247v4.7h4.7V196.9z
	 M221.9,222L221.9,222L221.9,222L221.9,222L221.9,222z M221.9,222L221.9,222L221.9,222L221.9,222L221.9,222z M226.6,222h-4.7v4.7
	h4.7V222z M251.7,222H247v4.7h4.7V222z M221.9,247.1L221.9,247.1L221.9,247.1L221.9,247.1L221.9,247.1z M221.9,247.1L221.9,247.1
	L221.9,247.1L221.9,247.1L221.9,247.1z M226.6,247.1h-4.7v4.7h4.7V247.1z M251.7,247.1H247v4.7h4.7V247.1z M272.1,196.9L272.1,196.9
	L272.1,196.9L272.1,196.9L272.1,196.9z M272.1,196.9L272.1,196.9L272.1,196.9L272.1,196.9L272.1,196.9z M276.8,196.9h-4.7v4.7h4.7
	V196.9z M301.9,196.9h-4.7v4.7h4.7V196.9z M272.1,222L272.1,222L272.1,222L272.1,222L272.1,222z M272.1,222L272.1,222L272.1,222
	L272.1,222L272.1,222z M276.8,222h-4.7v4.7h4.7V222z M301.9,222h-4.7v4.7h4.7V222z M272.1,247.1L272.1,247.1L272.1,247.1
	L272.1,247.1L272.1,247.1z M272.1,247.1L272.1,247.1L272.1,247.1L272.1,247.1L272.1,247.1z M276.8,247.1h-4.7v4.7h4.7V247.1z
	 M301.9,247.1h-4.7v4.7h4.7V247.1z M214.1,259.7h-4.7v4.7h4.7V259.7z M239.1,259.7h-4.7v4.7h4.7V259.7z M209.4,284.7L209.4,284.7
	L209.4,284.7L209.4,284.7L209.4,284.7z M209.4,284.7L209.4,284.7L209.4,284.7L209.4,284.7L209.4,284.7z M214.1,284.7h-4.7v4.7h4.7
	V284.7z M239.1,284.7h-4.7v4.7h4.7V284.7z M264.2,259.7h-4.7v4.7h4.7V259.7z M289.3,259.7h-4.7v4.7h4.7V259.7z M314.4,259.7h-4.7
	v4.7h4.7V259.7z M259.5,284.7L259.5,284.7L259.5,284.7L259.5,284.7L259.5,284.7z M259.5,284.7L259.5,284.7L259.5,284.7L259.5,284.7
	L259.5,284.7z M264.2,284.7h-4.7v4.7h4.7V284.7z M289.3,284.7h-4.7v4.7h4.7V284.7z M309.7,284.7L309.7,284.7L309.7,284.7
	L309.7,284.7L309.7,284.7z M309.7,284.7L309.7,284.7L309.7,284.7L309.7,284.7L309.7,284.7z M314.4,284.7h-4.7v4.7h4.7V284.7z
	 M221.9,272.2L221.9,272.2L221.9,272.2L221.9,272.2L221.9,272.2z M221.9,272.2L221.9,272.2L221.9,272.2L221.9,272.2L221.9,272.2z
	 M226.6,272.2h-4.7v4.7h4.7V272.2z M251.7,272.2H247v4.7h4.7V272.2z M221.9,297.3L221.9,297.3L221.9,297.3L221.9,297.3L221.9,297.3z
	 M221.9,297.3L221.9,297.3L221.9,297.3L221.9,297.3L221.9,297.3z M226.6,297.3h-4.7v4.7h4.7V297.3z M251.7,297.3H247v4.7h4.7V297.3z
	 M272.1,272.2L272.1,272.2L272.1,272.2L272.1,272.2L272.1,272.2z M272.1,272.2L272.1,272.2L272.1,272.2L272.1,272.2L272.1,272.2z
	 M276.8,272.2h-4.7v4.7h4.7V272.2z M301.9,272.2h-4.7v4.7h4.7V272.2z M272.1,297.3L272.1,297.3L272.1,297.3L272.1,297.3L272.1,297.3
	z M272.1,297.3L272.1,297.3L272.1,297.3L272.1,297.3L272.1,297.3z M276.8,297.3h-4.7v4.7h4.7V297.3z M301.9,297.3h-4.7v4.7h4.7
	V297.3z M13.3,309.8H8.6v4.7h4.7V309.8z M38.4,309.8h-4.7v4.7h4.7V309.8z M63.5,309.8h-4.7v4.7h4.7V309.8z M88.6,309.8h-4.7v4.7h4.7
	V309.8z M8.6,334.9L8.6,334.9L8.6,334.9L8.6,334.9L8.6,334.9z M8.6,334.9L8.6,334.9L8.6,334.9L8.6,334.9L8.6,334.9z M13.3,334.9H8.6
	v4.7h4.7V334.9z M38.4,334.9h-4.7v4.7h4.7V334.9z M58.8,334.9L58.8,334.9L58.8,334.9L58.8,334.9L58.8,334.9z M58.8,334.9L58.8,334.9
	L58.8,334.9L58.8,334.9L58.8,334.9z M63.5,334.9h-4.7v4.7h4.7V334.9z M88.6,334.9h-4.7v4.7h4.7V334.9z M113.7,309.8H109v4.7h4.7
	V309.8z M138.8,309.8h-4.7v4.7h4.7V309.8z M163.9,309.8h-4.7v4.7h4.7V309.8z M189,309.8h-4.7v4.7h4.7V309.8z M109,334.9L109,334.9
	L109,334.9L109,334.9L109,334.9z M109,334.9L109,334.9L109,334.9L109,334.9L109,334.9z M113.7,334.9H109v4.7h4.7V334.9z
	 M138.8,334.9h-4.7v4.7h4.7V334.9z M159.2,334.9L159.2,334.9L159.2,334.9L159.2,334.9L159.2,334.9z M159.2,334.9L159.2,334.9
	L159.2,334.9L159.2,334.9L159.2,334.9z M163.9,334.9h-4.7v4.7h4.7V334.9z M189,334.9h-4.7v4.7h4.7V334.9z M21.2,322.4L21.2,322.4
	L21.2,322.4L21.2,322.4L21.2,322.4z M21.2,322.4L21.2,322.4L21.2,322.4L21.2,322.4L21.2,322.4z M25.9,322.4h-4.7v4.7h4.7V322.4z
	 M51,322.4h-4.7v4.7H51V322.4z M71.4,322.4L71.4,322.4L71.4,322.4L71.4,322.4L71.4,322.4z M71.4,322.4L71.4,322.4L71.4,322.4
	L71.4,322.4L71.4,322.4z M76.1,322.4h-4.7v4.7h4.7V322.4z M101.2,322.4h-4.7v4.7h4.7V322.4z M21.2,347.5L21.2,347.5L21.2,347.5
	L21.2,347.5L21.2,347.5z M21.2,347.5L21.2,347.5L21.2,347.5L21.2,347.5L21.2,347.5z M25.9,347.5h-4.7v4.7h4.7V347.5z M51,347.5h-4.7
	v4.7H51V347.5z M71.4,347.5L71.4,347.5L71.4,347.5L71.4,347.5L71.4,347.5z M71.4,347.5L71.4,347.5L71.4,347.5L71.4,347.5L71.4,347.5
	z M76.1,347.5h-4.7v4.7h4.7V347.5z M101.2,347.5h-4.7v4.7h4.7V347.5z M121.5,322.4L121.5,322.4L121.5,322.4L121.5,322.4L121.5,322.4
	z M121.5,322.4L121.5,322.4L121.5,322.4L121.5,322.4L121.5,322.4z M126.2,322.4h-4.7v4.7h4.7V322.4z M151.3,322.4h-4.7v4.7h4.7
	V322.4z M171.7,322.4L171.7,322.4L171.7,322.4L171.7,322.4L171.7,322.4z M171.7,322.4L171.7,322.4L171.7,322.4L171.7,322.4
	L171.7,322.4z M176.4,322.4h-4.7v4.7h4.7V322.4z M201.5,322.4h-4.7v4.7h4.7V322.4z M121.5,347.5L121.5,347.5L121.5,347.5
	L121.5,347.5L121.5,347.5z M121.5,347.5L121.5,347.5L121.5,347.5L121.5,347.5L121.5,347.5z M126.2,347.5h-4.7v4.7h4.7V347.5z
	 M151.3,347.5h-4.7v4.7h4.7V347.5z M171.7,347.5L171.7,347.5L171.7,347.5L171.7,347.5L171.7,347.5z M171.7,347.5L171.7,347.5
	L171.7,347.5L171.7,347.5L171.7,347.5z M176.4,347.5h-4.7v4.7h4.7V347.5z M201.5,347.5h-4.7v4.7h4.7V347.5z M13.3,360H8.6v4.7h4.7
	V360z M38.4,360h-4.7v4.7h4.7V360z M63.5,360h-4.7v4.7h4.7V360z M88.6,360h-4.7v4.7h4.7V360z M8.6,385.1L8.6,385.1L8.6,385.1
	L8.6,385.1L8.6,385.1z M8.6,385.1L8.6,385.1L8.6,385.1L8.6,385.1L8.6,385.1z M13.3,385.1H8.6v4.7h4.7V385.1z M38.4,385.1h-4.7v4.7
	h4.7V385.1z M58.8,385.1L58.8,385.1L58.8,385.1L58.8,385.1L58.8,385.1z M58.8,385.1L58.8,385.1L58.8,385.1L58.8,385.1L58.8,385.1z
	 M63.5,385.1h-4.7v4.7h4.7V385.1z M88.6,385.1h-4.7v4.7h4.7V385.1z M113.7,360H109v4.7h4.7V360z M138.8,360h-4.7v4.7h4.7V360z
	 M163.9,360h-4.7v4.7h4.7V360z M189,360h-4.7v4.7h4.7V360z M109,385.1L109,385.1L109,385.1L109,385.1L109,385.1z M109,385.1
	L109,385.1L109,385.1L109,385.1L109,385.1z M113.7,385.1H109v4.7h4.7V385.1z M138.8,385.1h-4.7v4.7h4.7V385.1z M159.2,385.1
	L159.2,385.1L159.2,385.1L159.2,385.1L159.2,385.1z M159.2,385.1L159.2,385.1L159.2,385.1L159.2,385.1L159.2,385.1z M163.9,385.1
	h-4.7v4.7h4.7V385.1z M189,385.1h-4.7v4.7h4.7V385.1z M8.6,410.2L8.6,410.2L8.6,410.2L8.6,410.2L8.6,410.2z M8.6,410.2L8.6,410.2
	L8.6,410.2L8.6,410.2L8.6,410.2z M13.3,410.2H8.6v4.7h4.7V410.2z M38.4,410.2h-4.7v4.7h4.7V410.2z M58.8,410.2L58.8,410.2
	L58.8,410.2L58.8,410.2L58.8,410.2z M58.8,410.2L58.8,410.2L58.8,410.2L58.8,410.2L58.8,410.2z M63.5,410.2h-4.7v4.7h4.7V410.2z
	 M88.6,410.2h-4.7v4.7h4.7V410.2z M8.6,435.3L8.6,435.3L8.6,435.3L8.6,435.3L8.6,435.3z M8.6,435.3L8.6,435.3L8.6,435.3L8.6,435.3
	L8.6,435.3z M13.3,435.3H8.6v4.7h4.7V435.3z M38.4,435.3h-4.7v4.7h4.7V435.3z M58.8,435.3L58.8,435.3L58.8,435.3L58.8,435.3
	L58.8,435.3z M58.8,435.3L58.8,435.3L58.8,435.3L58.8,435.3L58.8,435.3z M63.5,435.3h-4.7v4.7h4.7V435.3z M88.6,435.3h-4.7v4.7h4.7
	V435.3z M109,410.2L109,410.2L109,410.2L109,410.2L109,410.2z M109,410.2L109,410.2L109,410.2L109,410.2L109,410.2z M113.7,410.2
	H109v4.7h4.7V410.2z M138.8,410.2h-4.7v4.7h4.7V410.2z M159.2,410.2L159.2,410.2L159.2,410.2L159.2,410.2L159.2,410.2z M159.2,410.2
	L159.2,410.2L159.2,410.2L159.2,410.2L159.2,410.2z M163.9,410.2h-4.7v4.7h4.7V410.2z M189,410.2h-4.7v4.7h4.7V410.2z M109,435.3
	L109,435.3L109,435.3L109,435.3L109,435.3z M109,435.3L109,435.3L109,435.3L109,435.3L109,435.3z M113.7,435.3H109v4.7h4.7V435.3z
	 M138.8,435.3h-4.7v4.7h4.7V435.3z M159.2,435.3L159.2,435.3L159.2,435.3L159.2,435.3L159.2,435.3z M159.2,435.3L159.2,435.3
	L159.2,435.3L159.2,435.3L159.2,435.3z M163.9,435.3h-4.7v4.7h4.7V435.3z M189,435.3h-4.7v4.7h4.7V435.3z M21.2,372.6L21.2,372.6
	L21.2,372.6L21.2,372.6L21.2,372.6z M21.2,372.6L21.2,372.6L21.2,372.6L21.2,372.6L21.2,372.6z M25.9,372.6h-4.7v4.7h4.7V372.6z
	 M51,372.6h-4.7v4.7H51V372.6z M71.4,372.6L71.4,372.6L71.4,372.6L71.4,372.6L71.4,372.6z M71.4,372.6L71.4,372.6L71.4,372.6
	L71.4,372.6L71.4,372.6z M76.1,372.6h-4.7v4.7h4.7V372.6z M101.2,372.6h-4.7v4.7h4.7V372.6z M21.2,397.6L21.2,397.6L21.2,397.6
	L21.2,397.6L21.2,397.6z M21.2,397.6L21.2,397.6L21.2,397.6L21.2,397.6L21.2,397.6z M25.9,397.6h-4.7v4.7h4.7V397.6z M51,397.6h-4.7
	v4.7H51V397.6z M71.4,397.6L71.4,397.6L71.4,397.6L71.4,397.6L71.4,397.6z M71.4,397.6L71.4,397.6L71.4,397.6L71.4,397.6L71.4,397.6
	z M76.1,397.6h-4.7v4.7h4.7V397.6z M101.2,397.6h-4.7v4.7h4.7V397.6z M121.5,372.6L121.5,372.6L121.5,372.6L121.5,372.6L121.5,372.6
	z M121.5,372.6L121.5,372.6L121.5,372.6L121.5,372.6L121.5,372.6z M126.2,372.6h-4.7v4.7h4.7V372.6z M151.3,372.6h-4.7v4.7h4.7
	V372.6z M171.7,372.6L171.7,372.6L171.7,372.6L171.7,372.6L171.7,372.6z M171.7,372.6L171.7,372.6L171.7,372.6L171.7,372.6
	L171.7,372.6z M176.4,372.6h-4.7v4.7h4.7V372.6z M201.5,372.6h-4.7v4.7h4.7V372.6z M121.5,397.6L121.5,397.6L121.5,397.6
	L121.5,397.6L121.5,397.6z M121.5,397.6L121.5,397.6L121.5,397.6L121.5,397.6L121.5,397.6z M126.2,397.6h-4.7v4.7h4.7V397.6z
	 M151.3,397.6h-4.7v4.7h4.7V397.6z M171.7,397.6L171.7,397.6L171.7,397.6L171.7,397.6L171.7,397.6z M171.7,397.6L171.7,397.6
	L171.7,397.6L171.7,397.6L171.7,397.6z M176.4,397.6h-4.7v4.7h4.7V397.6z M201.5,397.6h-4.7v4.7h4.7V397.6z M21.2,422.7L21.2,422.7
	L21.2,422.7L21.2,422.7L21.2,422.7z M21.2,422.7L21.2,422.7L21.2,422.7L21.2,422.7L21.2,422.7z M25.9,422.7h-4.7v4.7h4.7V422.7z
	 M51,422.7h-4.7v4.7H51V422.7z M71.4,422.7L71.4,422.7L71.4,422.7L71.4,422.7L71.4,422.7z M71.4,422.7L71.4,422.7L71.4,422.7
	L71.4,422.7L71.4,422.7z M76.1,422.7h-4.7v4.7h4.7V422.7z M101.2,422.7h-4.7v4.7h4.7V422.7z M21.2,447.8L21.2,447.8L21.2,447.8
	L21.2,447.8L21.2,447.8z M21.2,447.8L21.2,447.8L21.2,447.8L21.2,447.8L21.2,447.8z M25.9,447.8h-4.7v4.7h4.7V447.8z M51,447.8h-4.7
	v4.7H51V447.8z M71.4,447.8L71.4,447.8L71.4,447.8L71.4,447.8L71.4,447.8z M71.4,447.8L71.4,447.8L71.4,447.8L71.4,447.8L71.4,447.8
	z M76.1,447.8h-4.7v4.7h4.7V447.8z M101.2,447.8h-4.7v4.7h4.7V447.8z M121.5,422.7L121.5,422.7L121.5,422.7L121.5,422.7L121.5,422.7
	z M121.5,422.7L121.5,422.7L121.5,422.7L121.5,422.7L121.5,422.7z M126.2,422.7h-4.7v4.7h4.7V422.7z M151.3,422.7h-4.7v4.7h4.7
	V422.7z M171.7,422.7L171.7,422.7L171.7,422.7L171.7,422.7L171.7,422.7z M171.7,422.7L171.7,422.7L171.7,422.7L171.7,422.7
	L171.7,422.7z M176.4,422.7h-4.7v4.7h4.7V422.7z M201.5,422.7h-4.7v4.7h4.7V422.7z M121.5,447.8L121.5,447.8L121.5,447.8
	L121.5,447.8L121.5,447.8z M121.5,447.8L121.5,447.8L121.5,447.8L121.5,447.8L121.5,447.8z M126.2,447.8h-4.7v4.7h4.7V447.8z
	 M151.3,447.8h-4.7v4.7h4.7V447.8z M171.7,447.8L171.7,447.8L171.7,447.8L171.7,447.8L171.7,447.8z M171.7,447.8L171.7,447.8
	L171.7,447.8L171.7,447.8L171.7,447.8z M176.4,447.8h-4.7v4.7h4.7V447.8z M201.5,447.8h-4.7v4.7h4.7V447.8z M214.1,309.8h-4.7v4.7
	h4.7V309.8z M239.1,309.8h-4.7v4.7h4.7V309.8z M209.4,334.9L209.4,334.9L209.4,334.9L209.4,334.9L209.4,334.9z M209.4,334.9
	L209.4,334.9L209.4,334.9L209.4,334.9L209.4,334.9z M214.1,334.9h-4.7v4.7h4.7V334.9z M239.1,334.9h-4.7v4.7h4.7V334.9z
	 M264.2,309.8h-4.7v4.7h4.7V309.8z M289.3,309.8h-4.7v4.7h4.7V309.8z M314.4,309.8h-4.7v4.7h4.7V309.8z M259.5,334.9L259.5,334.9
	L259.5,334.9L259.5,334.9L259.5,334.9z M259.5,334.9L259.5,334.9L259.5,334.9L259.5,334.9L259.5,334.9z M264.2,334.9h-4.7v4.7h4.7
	V334.9z M289.3,334.9h-4.7v4.7h4.7V334.9z M309.7,334.9L309.7,334.9L309.7,334.9L309.7,334.9L309.7,334.9z M309.7,334.9L309.7,334.9
	L309.7,334.9L309.7,334.9L309.7,334.9z M314.4,334.9h-4.7v4.7h4.7V334.9z M221.9,322.4L221.9,322.4L221.9,322.4L221.9,322.4
	L221.9,322.4z M221.9,322.4L221.9,322.4L221.9,322.4L221.9,322.4L221.9,322.4z M226.6,322.4h-4.7v4.7h4.7V322.4z M251.7,322.4H247
	v4.7h4.7V322.4z M221.9,347.5L221.9,347.5L221.9,347.5L221.9,347.5L221.9,347.5z M221.9,347.5L221.9,347.5L221.9,347.5L221.9,347.5
	L221.9,347.5z M226.6,347.5h-4.7v4.7h4.7V347.5z M251.7,347.5H247v4.7h4.7V347.5z M272.1,322.4L272.1,322.4L272.1,322.4L272.1,322.4
	L272.1,322.4z M272.1,322.4L272.1,322.4L272.1,322.4L272.1,322.4L272.1,322.4z M276.8,322.4h-4.7v4.7h4.7V322.4z M301.9,322.4h-4.7
	v4.7h4.7V322.4z M272.1,347.5L272.1,347.5L272.1,347.5L272.1,347.5L272.1,347.5z M272.1,347.5L272.1,347.5L272.1,347.5L272.1,347.5
	L272.1,347.5z M276.8,347.5h-4.7v4.7h4.7V347.5z M301.9,347.5h-4.7v4.7h4.7V347.5z M214.1,360h-4.7v4.7h4.7V360z M239.1,360h-4.7
	v4.7h4.7V360z M209.4,385.1L209.4,385.1L209.4,385.1L209.4,385.1L209.4,385.1z M209.4,385.1L209.4,385.1L209.4,385.1L209.4,385.1
	L209.4,385.1z M214.1,385.1h-4.7v4.7h4.7V385.1z M239.1,385.1h-4.7v4.7h4.7V385.1z M264.2,360h-4.7v4.7h4.7V360z M289.3,360h-4.7
	v4.7h4.7V360z M314.4,360h-4.7v4.7h4.7V360z M259.5,385.1L259.5,385.1L259.5,385.1L259.5,385.1L259.5,385.1z M259.5,385.1
	L259.5,385.1L259.5,385.1L259.5,385.1L259.5,385.1z M264.2,385.1h-4.7v4.7h4.7V385.1z M289.3,385.1h-4.7v4.7h4.7V385.1z
	 M309.7,385.1L309.7,385.1L309.7,385.1L309.7,385.1L309.7,385.1z M309.7,385.1L309.7,385.1L309.7,385.1L309.7,385.1L309.7,385.1z
	 M314.4,385.1h-4.7v4.7h4.7V385.1z M209.4,410.2L209.4,410.2L209.4,410.2L209.4,410.2L209.4,410.2z M209.4,410.2L209.4,410.2
	L209.4,410.2L209.4,410.2L209.4,410.2z M214.1,410.2h-4.7v4.7h4.7V410.2z M239.1,410.2h-4.7v4.7h4.7V410.2z M209.4,435.3
	L209.4,435.3L209.4,435.3L209.4,435.3L209.4,435.3z M209.4,435.3L209.4,435.3L209.4,435.3L209.4,435.3L209.4,435.3z M214.1,435.3
	h-4.7v4.7h4.7V435.3z M239.1,435.3h-4.7v4.7h4.7V435.3z M259.5,410.2L259.5,410.2L259.5,410.2L259.5,410.2L259.5,410.2z
	 M259.5,410.2L259.5,410.2L259.5,410.2L259.5,410.2L259.5,410.2z M264.2,410.2h-4.7v4.7h4.7V410.2z M309.7,410.2L309.7,410.2
	L309.7,410.2L309.7,410.2L309.7,410.2z M314.4,410.2h-4.7v4.7h4.7V410.2z M259.5,435.3L259.5,435.3L259.5,435.3L259.5,435.3
	L259.5,435.3z M259.5,435.3L259.5,435.3L259.5,435.3L259.5,435.3L259.5,435.3z M264.2,435.3h-4.7v4.7h4.7V435.3z M276.8,435.3h-4.7
	v4.7h4.7V435.3z M309.7,435.3L309.7,435.3L309.7,435.3L309.7,435.3L309.7,435.3z M309.7,435.3L309.7,435.3L309.7,435.3L309.7,435.3
	L309.7,435.3z M314.4,435.3h-4.7v4.7h4.7V435.3z M221.9,372.6L221.9,372.6L221.9,372.6L221.9,372.6L221.9,372.6z M221.9,372.6
	L221.9,372.6L221.9,372.6L221.9,372.6L221.9,372.6z M226.6,372.6h-4.7v4.7h4.7V372.6z M251.7,372.6H247v4.7h4.7V372.6z M221.9,397.6
	L221.9,397.6L221.9,397.6L221.9,397.6L221.9,397.6z M221.9,397.6L221.9,397.6L221.9,397.6L221.9,397.6L221.9,397.6z M226.6,397.6
	h-4.7v4.7h4.7V397.6z M251.7,397.6H247v4.7h4.7V397.6z M272.1,372.6L272.1,372.6L272.1,372.6L272.1,372.6L272.1,372.6z M272.1,372.6
	L272.1,372.6L272.1,372.6L272.1,372.6L272.1,372.6z M276.8,372.6h-4.7v4.7h4.7V372.6z M301.9,372.6h-4.7v4.7h4.7V372.6z
	 M272.1,397.6L272.1,397.6L272.1,397.6L272.1,397.6L272.1,397.6z M272.1,397.6L272.1,397.6L272.1,397.6L272.1,397.6L272.1,397.6z
	 M276.8,397.6h-4.7v4.7h4.7V397.6z M301.9,397.6h-4.7v4.7h4.7V397.6z M221.9,422.7L221.9,422.7L221.9,422.7L221.9,422.7L221.9,422.7
	z M221.9,422.7L221.9,422.7L221.9,422.7L221.9,422.7L221.9,422.7z M226.6,422.7h-4.7v4.7h4.7V422.7z M251.7,422.7H247v4.7h4.7V422.7
	z M221.9,447.8L221.9,447.8L221.9,447.8L221.9,447.8L221.9,447.8z M221.9,447.8L221.9,447.8L221.9,447.8L221.9,447.8L221.9,447.8z
	 M226.6,447.8h-4.7v4.7h4.7V447.8z M251.7,447.8H247v4.7h4.7V447.8z M272.1,447.8L272.1,447.8L272.1,447.8L272.1,447.8L272.1,447.8z
	 M272.1,447.8L272.1,447.8L272.1,447.8L272.1,447.8L272.1,447.8z M276.8,447.8h-4.7v4.7h4.7V447.8z M301.9,447.8h-4.7v4.7h4.7V447.8
	z M13.3,8.8H8.6v4.7h4.7V8.8z M38.4,8.8h-4.7v4.7h4.7V8.8z M63.5,8.8h-4.7v4.7h4.7V8.8z M88.6,8.8h-4.7v4.7h4.7V8.8z M113.7,8.8H109
	v4.7h4.7V8.8z M138.8,8.8h-4.7v4.7h4.7V8.8z M163.9,8.8h-4.7v4.7h4.7V8.8z M189,8.8h-4.7v4.7h4.7V8.8z M214.1,8.8h-4.7v4.7h4.7V8.8z
	 M239.1,8.8h-4.7v4.7h4.7V8.8z M264.2,8.8h-4.7v4.7h4.7V8.8z M289.3,8.8h-4.7v4.7h4.7V8.8z M314.4,8.8h-4.7v4.7h4.7V8.8z
	 M284.6,435.2L284.6,435.2L284.6,435.2L284.6,435.2L284.6,435.2z M284.6,435.2L284.6,435.2L284.6,435.2L284.6,435.2L284.6,435.2z
	 M289.3,435.2h-4.7v4.7h4.7V435.2z M297.2,435.2L297.2,435.2L297.2,435.2L297.2,435.2L297.2,435.2z M297.2,435.2L297.2,435.2
	L297.2,435.2L297.2,435.2L297.2,435.2z M297.2,422.6L297.2,422.6L297.2,422.6L297.2,422.6L297.2,422.6z M301.9,422.6h-4.7v4.7h4.7
	V422.6z M301.9,435.2h-4.7v4.7h4.7V435.2z M273.1,410.2L273.1,410.2L273.1,410.2L273.1,410.2L273.1,410.2z M273.1,410.2L273.1,410.2
	L273.1,410.2L273.1,410.2L273.1,410.2z M273.1,422.7L273.1,422.7L273.1,422.7L273.1,422.7L273.1,422.7z M273.1,422.7L273.1,422.7
	L273.1,422.7L273.1,422.7L273.1,422.7z M285.6,422.6L285.6,422.6L285.6,422.6L285.6,422.6L285.6,422.6z M285.6,422.6L285.6,422.6
	L285.6,422.6L285.6,422.6L285.6,422.6z M283.3,431.1c1.1-0.4,2.2-0.9,3.1-1.6c-0.3-0.5-0.5-1.1-0.8-1.6c-0.9,0.6-1.8,1.1-2.8,1.4
	c-1,0.3-2,0.5-3.1,0.5c-1.1,0-2.1-0.2-3.1-0.5c-1-0.3-1.9-0.8-2.8-1.4c-0.3,0.5-0.5,1.1-0.8,1.6c1,0.7,2,1.2,3.1,1.6
	c1.1,0.4,2.3,0.6,3.5,0.6C281,431.6,282.1,431.4,283.3,431.1z M293.4,408.6c-0.4-0.3-0.8-0.6-1.3-0.7c-0.5-0.2-1-0.2-1.6-0.2
	c-0.3,0-0.7,0-1,0.1c-0.3,0.1-0.7,0.2-0.9,0.4c-0.3,0.2-0.5,0.4-0.7,0.7c-0.2,0.3-0.3,0.7-0.3,1.1c0,0.3,0.1,0.6,0.2,0.9
	c0.1,0.2,0.3,0.4,0.5,0.6c0.2,0.2,0.4,0.3,0.7,0.4c0.2,0.1,0.5,0.2,0.7,0.2c0.5,0.1,0.8,0.2,1.1,0.3c0.2,0.1,0.3,0.3,0.3,0.5
	c0,0.2-0.1,0.4-0.3,0.5c-0.2,0.1-0.4,0.1-0.6,0.1c-0.3,0-0.7-0.1-1-0.2c-0.3-0.2-0.6-0.3-0.8-0.6c-0.4,0.5-0.9,0.9-1.3,1.4
	c0.4,0.4,0.8,0.6,1.4,0.8c0.6,0.2,1.1,0.3,1.7,0.3c0.4,0,0.7,0,1.1-0.1c0.4-0.1,0.7-0.2,1-0.4c0.3-0.2,0.5-0.4,0.7-0.7
	c0.2-0.3,0.3-0.7,0.3-1.1c0-0.3-0.1-0.6-0.2-0.9c-0.1-0.2-0.3-0.5-0.5-0.6c-0.2-0.2-0.5-0.3-0.7-0.4c-0.3-0.1-0.5-0.2-0.8-0.2
	c-0.5-0.1-0.8-0.2-1-0.3c-0.2-0.1-0.3-0.2-0.3-0.4c0-0.2,0.1-0.4,0.3-0.4c0.2-0.1,0.4-0.1,0.6-0.1c0.3,0,0.6,0.1,0.8,0.2
	c0.3,0.1,0.5,0.3,0.7,0.5C292.6,409.5,293,409.1,293.4,408.6z M272,410.1c0.1-0.2,0.3-0.3,0.5-0.4c0.2-0.1,0.4-0.2,0.7-0.2
	c0.3,0,0.5,0.1,0.7,0.2c0.2,0.1,0.4,0.2,0.5,0.4c0.1,0.2,0.3,0.4,0.3,0.6c0.1,0.2,0.1,0.4,0.1,0.7s0,0.4-0.1,0.7
	c-0.1,0.2-0.2,0.4-0.3,0.6c-0.1,0.2-0.3,0.3-0.5,0.4c-0.2,0.1-0.4,0.2-0.7,0.2c-0.3,0-0.5-0.1-0.7-0.2c-0.2-0.1-0.4-0.2-0.5-0.4
	c-0.1-0.2-0.2-0.4-0.3-0.6l0,0l-2,0.9l0,0c0.2,0.5,0.5,0.9,0.8,1.2c0.4,0.3,0.8,0.6,1.2,0.8c0.5,0.2,1,0.3,1.5,0.3
	c0.5,0,1-0.1,1.5-0.3c0.5-0.2,0.9-0.4,1.2-0.8c0.4-0.3,0.6-0.7,0.9-1.2c0.2-0.5,0.3-1,0.3-1.6c0-0.6-0.1-1.1-0.3-1.6
	c-0.2-0.5-0.5-0.9-0.9-1.2c-0.4-0.3-0.8-0.6-1.2-0.7c-0.5-0.2-1-0.3-1.5-0.3c-0.5,0-1,0.1-1.5,0.3c-0.5,0.2-0.9,0.4-1.2,0.7
	c-0.4,0.3-0.6,0.7-0.8,1.2l0,0L272,410.1 M286.3,410c-0.2-0.4-0.4-0.8-0.7-1.2c-0.3-0.3-0.6-0.6-1.1-0.8c-0.4-0.2-0.9-0.3-1.4-0.3
	c-0.5,0-1,0.1-1.4,0.3c-0.4,0.2-0.7,0.5-0.9,0.7h0v-0.9h-2.2v10.5l0,0c0,2.4,0,4.9,0,7.3c0.8,0,1.6,0,2.4,0c0-1.2,0-2.5,0-3.7
	c0-0.1,0-0.3,0.1-0.5c0.1-0.2,0.2-0.4,0.3-0.5c0.1-0.2,0.3-0.3,0.5-0.4c0.2-0.1,0.5-0.2,0.8-0.2c0.1,0,0.2,0,0.3,0
	c0.1,0,0.2,0,0.3,0.1c0-0.7,0.1-1.4,0.1-2.1c-0.1,0-0.1,0-0.2,0c-0.1,0-0.2,0-0.3,0c-0.5,0-0.8,0.1-1.2,0.4
	c-0.3,0.2-0.6,0.5-0.8,0.9c0,0,0,0,0,0h0v-5.2h0c0.2,0.3,0.5,0.5,0.9,0.7c0.4,0.2,0.8,0.3,1.2,0.3c0.5,0,1-0.1,1.4-0.3
	c0.4-0.2,0.8-0.5,1.1-0.8c0.3-0.3,0.5-0.7,0.7-1.2l0,0l-2.2-0.7l0,0c-0.1,0.2-0.2,0.4-0.3,0.6c-0.1,0.2-0.3,0.3-0.5,0.4
	c-0.2,0.1-0.4,0.2-0.7,0.2c-0.3,0-0.5-0.1-0.7-0.2c-0.2-0.1-0.4-0.2-0.5-0.4c-0.1-0.2-0.3-0.4-0.3-0.6c-0.1-0.2-0.1-0.4-0.1-0.7
	c0-0.2,0-0.4,0.1-0.7c0.1-0.2,0.2-0.4,0.3-0.6c0.1-0.2,0.3-0.3,0.5-0.4c0.2-0.1,0.4-0.2,0.7-0.2c0.3,0,0.5,0.1,0.7,0.2
	c0.2,0.1,0.4,0.2,0.5,0.4l0,0L286.3,410 M286.6,420.7c0.1-0.2,0.3-0.3,0.5-0.4c0.2-0.1,0.5-0.2,0.7-0.2c0.3,0,0.5,0.1,0.7,0.2
	c0.2,0.1,0.4,0.2,0.5,0.4c0.1,0.2,0.3,0.4,0.3,0.6c0.1,0.2,0.1,0.5,0.1,0.7c0,0.2,0,0.5-0.1,0.7c-0.1,0.2-0.2,0.4-0.3,0.6
	c-0.1,0.2-0.3,0.3-0.5,0.4c-0.2,0.1-0.5,0.2-0.7,0.2c-0.3,0-0.5-0.1-0.7-0.2c-0.2-0.1-0.4-0.3-0.5-0.4c-0.1-0.2-0.3-0.4-0.3-0.6l0,0
	l-2.1,0.9l0,0c0.2,0.5,0.5,0.9,0.9,1.2c0.4,0.3,0.8,0.6,1.3,0.8c0.5,0.2,1,0.3,1.6,0.3c0.6,0,1.1-0.1,1.6-0.3
	c0.5-0.2,0.9-0.4,1.3-0.8c0.4-0.3,0.7-0.7,0.9-1.2s0.3-1,0.3-1.6c0-0.6-0.1-1.1-0.3-1.6c-0.2-0.5-0.5-0.9-0.9-1.2
	c-0.4-0.3-0.8-0.6-1.3-0.8c-0.5-0.2-1-0.3-1.6-0.3c-0.5,0-1.1,0.1-1.6,0.3c-0.5,0.2-0.9,0.4-1.3,0.8c-0.4,0.3-0.7,0.7-0.9,1.2l0,0
	L286.6,420.7 M271.8,420.7c0.1-0.2,0.3-0.3,0.5-0.4c0.2-0.1,0.5-0.2,0.7-0.2s0.5,0.1,0.7,0.2c0.2,0.1,0.4,0.2,0.5,0.4
	c0.1,0.2,0.3,0.4,0.3,0.6c0.1,0.2,0.1,0.5,0.1,0.7c0,0.2,0,0.5-0.1,0.7c-0.1,0.2-0.2,0.4-0.3,0.6c-0.1,0.2-0.3,0.3-0.5,0.4
	c-0.2,0.1-0.5,0.2-0.7,0.2c-0.3,0-0.5-0.1-0.7-0.2c-0.2-0.1-0.4-0.3-0.5-0.4c-0.1-0.2-0.3-0.4-0.3-0.6l0,0l-2.1,0.9l0,0
	c0.2,0.5,0.5,0.9,0.9,1.2c0.4,0.3,0.8,0.6,1.3,0.8c0.5,0.2,1,0.3,1.6,0.3c0.6,0,1.1-0.1,1.6-0.3c0.5-0.2,0.9-0.4,1.3-0.8
	c0.4-0.3,0.7-0.7,0.9-1.2c0.2-0.5,0.3-1,0.3-1.6c0-0.6-0.1-1.1-0.3-1.6c-0.2-0.5-0.5-0.9-0.9-1.2c-0.4-0.3-0.8-0.6-1.3-0.8
	c-0.5-0.2-1-0.3-1.6-0.3c-0.5,0-1.1,0.1-1.6,0.3c-0.5,0.2-0.9,0.4-1.3,0.8c-0.4,0.3-0.7,0.7-0.9,1.2l0,0L271.8,420.7"/>
</svg>
