<?xml version="1.0" encoding="utf-8"?>
<!-- Generator: Adobe Illustrator 15.1.0, SVG Export Plug-In . SVG Version: 6.00 Build 0)  -->
<!DOCTYPE svg PUBLIC "-//W3C//DTD SVG 1.1//EN" "http://www.w3.org/Graphics/SVG/1.1/DTD/svg11.dtd">
<svg version="1.1" id="Layer_1" xmlns="http://www.w3.org/2000/svg" xmlns:xlink="http://www.w3.org/1999/xlink" x="0px" y="0px"
	 width="65px" height="65px" viewBox="0 0 65 65" enable-background="new 0 0 65 65" xml:space="preserve">
<g>
	<defs>
		<rect id="SVGID_1_" x="-36.49" y="-15.605" width="141.73" height="141.73"/>
	</defs>
	<clipPath id="SVGID_2_">
		<use xlink:href="#SVGID_1_"  overflow="visible"/>
	</clipPath>
	<g clip-path="url(#SVGID_2_)">
		<defs>
			<rect id="SVGID_3_" x="-36.49" y="-15.605" width="141.73" height="141.73"/>
		</defs>
		<clipPath id="SVGID_4_">
			<use xlink:href="#SVGID_3_"  overflow="visible"/>
		</clipPath>
		<path clip-path="url(#SVGID_4_)" fill="#272626" d="M60.083,52.072v8.299c0,1.618-1.324,2.942-2.943,2.942h-4.088
			c-1.618,0-2.942-1.324-2.942-2.942v-8.299c0-2.754,2.234-4.986,4.987-4.986C57.852,47.086,60.083,49.318,60.083,52.072"/>
		<path clip-path="url(#SVGID_4_)" fill="#513114" d="M37.56,17.006c0,0.735,0.595,1.33,1.33,1.33c0.733,0,1.33-0.595,1.33-1.33
			c0-0.734-0.597-1.33-1.33-1.33C38.154,15.676,37.56,16.272,37.56,17.006"/>
		<path clip-path="url(#SVGID_4_)" fill="#121210" d="M38.043,17.006c0,0.467,0.379,0.846,0.846,0.846
			c0.468,0,0.847-0.379,0.847-0.846c0-0.467-0.379-0.846-0.847-0.846C38.422,16.16,38.043,16.539,38.043,17.006"/>
		<path clip-path="url(#SVGID_4_)" fill="#FFFFFF" d="M39.107,16.474c0,0.173,0.142,0.314,0.314,0.314s0.312-0.141,0.312-0.314
			s-0.14-0.314-0.312-0.314S39.107,16.301,39.107,16.474"/>
		<path clip-path="url(#SVGID_4_)" fill="#FFFFFF" d="M38.337,17.529c0,0.08,0.065,0.145,0.146,0.145s0.145-0.065,0.145-0.145
			s-0.064-0.145-0.145-0.145S38.337,17.449,38.337,17.529"/>
		<path clip-path="url(#SVGID_4_)" fill="#FFD63D" d="M41.776,31.458c0,0-1.65,1.453-1.807,2.974c-0.155,1.52-2.134,1.08-2.134,1.08
			l-0.308-4.31l4.248-0.44V31.458z"/>
		<path clip-path="url(#SVGID_4_)" fill="#FFD63D" d="M26.972,34.566c-0.61-1.053-6.155,1.66-9.76,4.156
			c-2.099-0.649-4.442,0.208-5.587,2.192c-1.33,2.303-0.54,5.249,1.764,6.578c1.42,0.82,3.795-2.039,4.867-4.663
			c1.246-0.262,2.644-0.8,4.027-1.601C25.818,39.182,27.917,36.198,26.972,34.566"/>
		<g opacity="0.05" clip-path="url(#SVGID_4_)">
			<g>
				<defs>
					<rect id="SVGID_5_" x="13.19" y="34.334" width="14.008" height="13.302"/>
				</defs>
				<clipPath id="SVGID_6_">
					<use xlink:href="#SVGID_5_"  overflow="visible"/>
				</clipPath>
				<g clip-path="url(#SVGID_6_)">
					<defs>
						<rect id="SVGID_7_" x="13.191" y="34.335" width="14.008" height="13.301"/>
					</defs>
					<clipPath id="SVGID_8_">
						<use xlink:href="#SVGID_7_"  overflow="visible"/>
					</clipPath>
					<path clip-path="url(#SVGID_8_)" fill="#272626" d="M26.972,34.566c-0.093-0.16-0.302-0.232-0.6-0.232
						c0.901,1.639-1.192,4.596-4.705,6.63c-1.383,0.801-2.781,1.339-4.027,1.601c-0.972,2.381-3.017,4.955-4.449,4.799
						c0.066,0.043,0.129,0.088,0.198,0.128c1.42,0.82,3.795-2.039,4.867-4.663c1.246-0.262,2.644-0.8,4.027-1.601
						C25.818,39.182,27.917,36.198,26.972,34.566"/>
				</g>
			</g>
		</g>
		<path clip-path="url(#SVGID_4_)" fill="#FFD63D" d="M55.097,46.47c-0.712,0-1.391,0.142-2.014,0.394
			c1.625-1.492,2.062-3.959,0.912-5.95c-1.146-1.983-3.488-2.84-5.587-2.192c-2.683-1.856-6.436-3.832-8.435-4.289
			c-0.154-0.539-0.25-1.116-0.28-1.681c5.191-2.681,8.767-8.294,8.767-14.786C48.46,8.872,41.448,1.5,32.798,1.5
			c-8.65,0-15.663,7.372-15.663,16.466c0,6.538,3.626,12.186,8.878,14.844c-0.064,1.021-0.345,2.066-0.844,2.792
			c-2.751,4.002-4.51,10.121-4.51,16.979c0,0.239,0.013,0.472,0.032,0.702h-9.646c-1.558,0-2.832,1.274-2.832,2.832v2.765
			c0,1.557,1.274,2.831,2.832,2.831h38.831c0.405,1.282,1.609,2.22,3.021,2.22h4.398c1.741,0,3.166-1.425,3.166-3.166v-8.93
			C60.462,48.871,58.062,46.47,55.097,46.47 M43.124,41.102c0.071,0.042,0.141,0.085,0.214,0.127
			c1.383,0.801,2.78,1.339,4.026,1.601c0.962,2.355,2.973,4.899,4.402,4.803c-1.238,0.983-2.036,2.497-2.036,4.202v1.448h-4.825
			c0.019-0.23,0.031-0.463,0.031-0.702C44.937,48.369,44.273,44.437,43.124,41.102"/>
		<g opacity="0.5" clip-path="url(#SVGID_4_)">
			<g>
				<defs>
					<rect id="SVGID_9_" x="22.445" y="12.565" width="7.817" height="8.197"/>
				</defs>
				<clipPath id="SVGID_10_">
					<use xlink:href="#SVGID_9_"  overflow="visible"/>
				</clipPath>
				<g clip-path="url(#SVGID_10_)">
					<defs>
						<rect id="SVGID_11_" x="22.445" y="12.565" width="7.817" height="8.197"/>
					</defs>
					<clipPath id="SVGID_12_">
						<use xlink:href="#SVGID_11_"  overflow="visible"/>
					</clipPath>
					<path clip-path="url(#SVGID_12_)" fill="#272626" d="M22.445,16.664c0-2.264,1.75-4.099,3.908-4.099
						c2.159,0,3.909,1.835,3.909,4.099c0,2.264-1.75,4.099-3.909,4.099C24.195,20.763,22.445,18.928,22.445,16.664"/>
				</g>
			</g>
		</g>
		<path clip-path="url(#SVGID_4_)" fill="#FFD63D" d="M15.426,51.834v8.93c0,1.741-1.425,3.166-3.167,3.166H7.86
			c-1.741,0-3.166-1.425-3.166-3.166v-8.93c0-2.963,2.404-5.365,5.367-5.365C13.025,46.469,15.426,48.872,15.426,51.834"/>
		<path clip-path="url(#SVGID_4_)" fill="#272626" d="M15.047,52.072v8.299c0,1.618-1.324,2.942-2.943,2.942H8.016
			c-1.618,0-2.943-1.324-2.943-2.942v-8.299c0-2.754,2.235-4.986,4.988-4.986C12.816,47.086,15.047,49.318,15.047,52.072"/>
		<path clip-path="url(#SVGID_4_)" fill="#FFFFFF" d="M29.985,16.256c0,2.006-1.626,3.632-3.632,3.632
			c-2.005,0-3.631-1.626-3.631-3.632c0-2.006,1.626-3.632,3.631-3.632C28.359,12.625,29.985,14.25,29.985,16.256"/>
		<path clip-path="url(#SVGID_4_)" fill="#FFFFFF" d="M26.542,16.474c0,0.173-0.14,0.314-0.314,0.314
			c-0.173,0-0.314-0.141-0.314-0.314s0.141-0.314,0.314-0.314C26.402,16.16,26.542,16.301,26.542,16.474"/>
		<path clip-path="url(#SVGID_4_)" fill="#FFFFFF" d="M27.313,17.529c0,0.08-0.065,0.145-0.145,0.145s-0.145-0.065-0.145-0.145
			s0.065-0.145,0.145-0.145S27.313,17.449,27.313,17.529"/>
		<path clip-path="url(#SVGID_4_)" fill="#FFD63D" d="M26.353,13.609c1.395,0,2.707,0.353,3.853,0.975
			c0.065-0.286,0.101-0.583,0.101-0.888c0-2.184-1.77-3.954-3.954-3.954c-2.184,0-3.954,1.77-3.954,3.954
			c0,0.305,0.036,0.602,0.101,0.888C23.646,13.962,24.958,13.609,26.353,13.609"/>
		<g opacity="0.5" clip-path="url(#SVGID_4_)">
			<g>
				<defs>
					<rect id="SVGID_13_" x="35.389" y="12.565" width="7.816" height="8.197"/>
				</defs>
				<clipPath id="SVGID_14_">
					<use xlink:href="#SVGID_13_"  overflow="visible"/>
				</clipPath>
				<g clip-path="url(#SVGID_14_)">
					<defs>
						<rect id="SVGID_15_" x="35.389" y="12.565" width="7.817" height="8.197"/>
					</defs>
					<clipPath id="SVGID_16_">
						<use xlink:href="#SVGID_15_"  overflow="visible"/>
					</clipPath>
					<path clip-path="url(#SVGID_16_)" fill="#272626" d="M43.205,16.664c0-2.264-1.75-4.099-3.908-4.099
						c-2.159,0-3.909,1.835-3.909,4.099c0,2.264,1.75,4.099,3.909,4.099C41.455,20.763,43.205,18.928,43.205,16.664"/>
				</g>
			</g>
		</g>
		<path clip-path="url(#SVGID_4_)" fill="#FFFFFF" d="M35.665,16.256c0,2.006,1.626,3.632,3.632,3.632
			c2.005,0,3.631-1.626,3.631-3.632c0-2.006-1.626-3.632-3.631-3.632C37.291,12.625,35.665,14.25,35.665,16.256"/>
		<path clip-path="url(#SVGID_4_)" fill="#FFD63D" d="M39.324,13.609c-1.395,0-2.707,0.353-3.853,0.975
			c-0.065-0.286-0.102-0.583-0.102-0.888c0-2.184,1.771-3.954,3.954-3.954s3.954,1.77,3.954,3.954c0,0.305-0.036,0.602-0.101,0.888
			C42.031,13.962,40.72,13.609,39.324,13.609"/>
		<path clip-path="url(#SVGID_4_)" fill="#FFD63D" d="M23.874,31.458c0,0,1.65,1.453,1.806,2.974c0.156,1.52,2.134,1.08,2.134,1.08
			l0.308-4.31l-4.248-0.44V31.458z"/>
		<g opacity="0.05" clip-path="url(#SVGID_4_)">
			<g>
				<defs>
					<rect id="SVGID_17_" x="22.305" y="34.46" width="38.157" height="29.471"/>
				</defs>
				<clipPath id="SVGID_18_">
					<use xlink:href="#SVGID_17_"  overflow="visible"/>
				</clipPath>
				<g clip-path="url(#SVGID_18_)">
					<defs>
						<rect id="SVGID_19_" x="22.305" y="34.46" width="38.157" height="29.471"/>
					</defs>
					<clipPath id="SVGID_20_">
						<use xlink:href="#SVGID_19_"  overflow="visible"/>
					</clipPath>
					<path clip-path="url(#SVGID_20_)" fill="#272626" d="M55.098,46.469c-0.712,0-1.392,0.142-2.015,0.395
						c1.625-1.493,2.062-3.96,0.912-5.95c-1.145-1.984-3.488-2.841-5.588-2.193c-2.636-1.825-6.306-3.762-8.328-4.261
						c0.002,0.143,0.006,0.287,0.006,0.431c0,12.057-7.331,22.401-17.78,26.818h27.571c0.405,1.283,1.608,2.221,3.021,2.221h4.398
						c1.741,0,3.166-1.425,3.166-3.166v-8.93C60.462,48.871,58.062,46.469,55.098,46.469 M49.73,51.834v1.448h-4.826
						c0.019-0.23,0.032-0.462,0.032-0.702c0-4.211-0.664-8.144-1.812-11.479c0.071,0.043,0.142,0.085,0.213,0.127
						c1.385,0.801,2.781,1.339,4.027,1.601c0.962,2.355,2.973,4.899,4.403,4.803C50.528,48.615,49.73,50.13,49.73,51.834"/>
				</g>
			</g>
		</g>
		<path clip-path="url(#SVGID_4_)" fill="#272626" d="M60.083,52.072v8.299c0,1.618-1.324,2.942-2.943,2.942h-4.088
			c-1.618,0-2.942-1.324-2.942-2.942v-8.299c0-2.754,2.234-4.986,4.987-4.986C57.851,47.086,60.083,49.318,60.083,52.072"/>
		<path clip-path="url(#SVGID_4_)" fill="#FFFFFF" d="M39.107,16.474c0,0.173,0.142,0.314,0.314,0.314s0.312-0.141,0.312-0.314
			s-0.14-0.314-0.312-0.314S39.107,16.301,39.107,16.474"/>
	</g>
</g>
</svg>
