<?xml version="1.0" encoding="UTF-8" standalone="no"?>
<!-- Generator: Adobe Illustrator 15.1.0, SVG Export Plug-In . SVG Version: 6.00 Build 0)  -->

<svg
   xmlns:dc="http://purl.org/dc/elements/1.1/"
   xmlns:cc="http://creativecommons.org/ns#"
   xmlns:rdf="http://www.w3.org/1999/02/22-rdf-syntax-ns#"
   xmlns:svg="http://www.w3.org/2000/svg"
   xmlns="http://www.w3.org/2000/svg"
   xmlns:xlink="http://www.w3.org/1999/xlink"
   xmlns:sodipodi="http://sodipodi.sourceforge.net/DTD/sodipodi-0.dtd"
   xmlns:inkscape="http://www.inkscape.org/namespaces/inkscape"
   version="1.1"
   id="Layer_1"
   x="0px"
   y="0px"
   width="55.767002"
   height="62.431"
   viewBox="0 0 55.767002 62.431"
   enable-background="new 0 0 65 65"
   xml:space="preserve"
   inkscape:version="0.91 r13725"
   sodipodi:docname="empty_ono.svg"><metadata
     id="metadata141"><rdf:RDF><cc:Work
         rdf:about=""><dc:format>image/svg+xml</dc:format><dc:type
           rdf:resource="http://purl.org/dc/dcmitype/StillImage" /><dc:title></dc:title></cc:Work></rdf:RDF></metadata><defs
     id="defs139" /><sodipodi:namedview
     pagecolor="#ffffff"
     bordercolor="#666666"
     borderopacity="1"
     objecttolerance="10"
     gridtolerance="10"
     guidetolerance="10"
     inkscape:pageopacity="0"
     inkscape:pageshadow="2"
     inkscape:window-width="1920"
     inkscape:window-height="1021"
     id="namedview137"
     showgrid="true"
     fit-margin-top="0"
     fit-margin-left="0"
     fit-margin-right="0"
     fit-margin-bottom="0"
     inkscape:zoom="10.269366"
     inkscape:cx="42.085673"
     inkscape:cy="24.069645"
     inkscape:window-x="0"
     inkscape:window-y="0"
     inkscape:window-maximized="1"
     inkscape:current-layer="g11"><inkscape:grid
       type="xygrid"
       id="grid4273"
       originx="-4.694"
       originy="-1.069" /></sodipodi:namedview><g
     id="g3"
     transform="translate(-4.694,-1.5)"><defs
       id="defs5"><rect
         id="SVGID_1_"
         x="-36.490002"
         y="-15.605"
         width="141.73"
         height="141.73" /></defs><clipPath
       id="SVGID_2_"><use
         xlink:href="#SVGID_1_"
         overflow="visible"
         id="use9"
         style="overflow:visible"
         x="0"
         y="0"
         width="100%"
         height="100%" /></clipPath><g
       clip-path="url(#SVGID_2_)"
       id="g11"><defs
         id="defs13"><rect
           id="SVGID_3_"
           x="-36.490002"
           y="-15.605"
           width="141.73"
           height="141.73" /></defs><clipPath
         id="SVGID_4_"><use
           xlink:href="#SVGID_3_"
           overflow="visible"
           id="use17"
           style="overflow:visible"
           x="0"
           y="0"
           width="100%"
           height="100%" /></clipPath><path
         clip-path="url(#SVGID_4_)"
         d="m 60.083,52.072 0,8.299 c 0,1.618 -1.324,2.942 -2.943,2.942 l -4.088,0 c -1.618,0 -2.942,-1.324 -2.942,-2.942 l 0,-8.299 c 0,-2.754 2.234,-4.986 4.987,-4.986 2.755,0 4.986,2.232 4.986,4.986"
         id="path19"
         inkscape:connector-curvature="0"
         style="fill:#272626" /><path
         clip-path="url(#SVGID_4_)"
         d="m 37.56,17.006 c 0,0.735 0.595,1.33 1.33,1.33 0.733,0 1.33,-0.595 1.33,-1.33 0,-0.734 -0.597,-1.33 -1.33,-1.33 -0.736,0 -1.33,0.596 -1.33,1.33"
         id="path21"
         inkscape:connector-curvature="0"
         transform="translate(-0.63691737,0)"
         style="fill:#513114" /><path
         clip-path="url(#SVGID_4_)"
         d="m 38.043,17.006 c 0,0.467 0.379,0.846 0.846,0.846 0.468,0 0.847,-0.379 0.847,-0.846 0,-0.467 -0.379,-0.846 -0.847,-0.846 -0.467,0 -0.846,0.379 -0.846,0.846"
         id="path23"
         inkscape:connector-curvature="0"
         transform="translate(-0.63691737,0)"
         style="fill:#121210" /><path
         clip-path="url(#SVGID_4_)"
         d="m 39.107,16.474 c 0,0.173 0.142,0.314 0.314,0.314 0.172,0 0.312,-0.141 0.312,-0.314 0,-0.173 -0.14,-0.314 -0.312,-0.314 -0.172,0 -0.314,0.141 -0.314,0.314"
         id="path25"
         inkscape:connector-curvature="0"
         transform="translate(-0.63691737,0)"
         style="fill:#ffffff" /><path
         clip-path="url(#SVGID_4_)"
         d="m 38.337,17.529 c 0,0.08 0.065,0.145 0.146,0.145 0.081,0 0.145,-0.065 0.145,-0.145 0,-0.08 -0.064,-0.145 -0.145,-0.145 -0.081,0 -0.146,0.065 -0.146,0.145"
         id="path27"
         inkscape:connector-curvature="0"
         transform="translate(-0.63691737,0)"
         style="fill:#ffffff" /><path
         clip-path="url(#SVGID_4_)"
         d="m 41.776,31.458 c 0,0 -1.65,1.453 -1.807,2.974 -0.155,1.52 -2.134,1.08 -2.134,1.08 l -0.308,-4.31 4.248,-0.44 0,0.696 z"
         id="path29"
         inkscape:connector-curvature="0"
         style="fill:#ffd63d" /><path
         clip-path="url(#SVGID_4_)"
         d="m 26.972,34.566 c -0.61,-1.053 -6.155,1.66 -9.76,4.156 -2.099,-0.649 -4.442,0.208 -5.587,2.192 -1.33,2.303 -0.54,5.249 1.764,6.578 1.42,0.82 3.795,-2.039 4.867,-4.663 1.246,-0.262 2.644,-0.8 4.027,-1.601 3.535,-2.046 5.634,-5.03 4.689,-6.662"
         id="path31"
         inkscape:connector-curvature="0"
         style="fill:#ffd63d" /><g
         clip-path="url(#SVGID_4_)"
         id="g33"
         style="opacity:0.05"><g
           id="g35"><defs
             id="defs37"><rect
               id="SVGID_5_"
               x="13.19"
               y="34.334"
               width="14.008"
               height="13.302" /></defs><clipPath
             id="SVGID_6_"><use
               xlink:href="#SVGID_5_"
               overflow="visible"
               id="use41"
               style="overflow:visible"
               x="0"
               y="0"
               width="100%"
               height="100%" /></clipPath><g
             clip-path="url(#SVGID_6_)"
             id="g43"><defs
               id="defs45"><rect
                 id="SVGID_7_"
                 x="13.191"
                 y="34.334999"
                 width="14.008"
                 height="13.301" /></defs><clipPath
               id="SVGID_8_"><use
                 xlink:href="#SVGID_7_"
                 overflow="visible"
                 id="use49"
                 style="overflow:visible"
                 x="0"
                 y="0"
                 width="100%"
                 height="100%" /></clipPath><path
               clip-path="url(#SVGID_8_)"
               d="m 26.972,34.566 c -0.093,-0.16 -0.302,-0.232 -0.6,-0.232 0.901,1.639 -1.192,4.596 -4.705,6.63 -1.383,0.801 -2.781,1.339 -4.027,1.601 -0.972,2.381 -3.017,4.955 -4.449,4.799 0.066,0.043 0.129,0.088 0.198,0.128 1.42,0.82 3.795,-2.039 4.867,-4.663 1.246,-0.262 2.644,-0.8 4.027,-1.601 3.535,-2.046 5.634,-5.03 4.689,-6.662"
               id="path51"
               inkscape:connector-curvature="0"
               style="fill:#272626" /></g></g></g><path
         clip-path="url(#SVGID_4_)"
         d="m 55.097,46.47 c -0.712,0 -1.391,0.142 -2.014,0.394 1.625,-1.492 2.062,-3.959 0.912,-5.95 -1.146,-1.983 -3.488,-2.84 -5.587,-2.192 -2.683,-1.856 -6.436,-3.832 -8.435,-4.289 -0.154,-0.539 -0.25,-1.116 -0.28,-1.681 C 44.884,30.071 48.46,24.458 48.46,17.966 48.46,8.872 41.448,1.5 32.798,1.5 c -8.65,0 -15.663,7.372 -15.663,16.466 0,6.538 3.626,12.186 8.878,14.844 -0.064,1.021 -0.345,2.066 -0.844,2.792 -2.751,4.002 -4.51,10.121 -4.51,16.979 0,0.239 0.013,0.472 0.032,0.702 l -9.646,0 c -1.558,0 -2.832,1.274 -2.832,2.832 l 0,2.765 c 0,1.557 1.274,2.831 2.832,2.831 l 38.831,0 c 0.405,1.282 1.609,2.22 3.021,2.22 l 4.398,0 c 1.741,0 3.166,-1.425 3.166,-3.166 l 0,-8.93 C 60.462,48.871 58.062,46.47 55.097,46.47 M 43.124,41.102 c 0.071,0.042 0.141,0.085 0.214,0.127 1.383,0.801 2.78,1.339 4.026,1.601 0.962,2.355 2.973,4.899 4.402,4.803 -1.238,0.983 -2.036,2.497 -2.036,4.202 l 0,1.448 -4.825,0 c 0.019,-0.23 0.031,-0.463 0.031,-0.702 10e-4,-4.212 -0.663,-8.144 -1.812,-11.479"
         id="path53"
         inkscape:connector-curvature="0"
         style="fill:#ffd63d" /><g
         clip-path="url(#SVGID_4_)"
         id="g55"
         style="opacity:0.5"><g
           id="g57"><defs
             id="defs59"><rect
               id="SVGID_9_"
               x="22.445"
               y="12.565"
               width="7.8169999"
               height="8.1969995" /></defs><clipPath
             id="SVGID_10_"><use
               xlink:href="#SVGID_9_"
               overflow="visible"
               id="use63"
               style="overflow:visible"
               x="0"
               y="0"
               width="100%"
               height="100%" /></clipPath><g
             clip-path="url(#SVGID_10_)"
             id="g65"><defs
               id="defs67"><rect
                 id="SVGID_11_"
                 x="22.445"
                 y="12.565"
                 width="7.8169999"
                 height="8.1969995" /></defs><clipPath
               id="SVGID_12_"><use
                 xlink:href="#SVGID_11_"
                 overflow="visible"
                 id="use71"
                 style="overflow:visible"
                 x="0"
                 y="0"
                 width="100%"
                 height="100%" /></clipPath><path
               clip-path="url(#SVGID_12_)"
               d="m 22.445,16.664 c 0,-2.264 1.75,-4.099 3.908,-4.099 2.159,0 3.909,1.835 3.909,4.099 0,2.264 -1.75,4.099 -3.909,4.099 -2.158,0 -3.908,-1.835 -3.908,-4.099"
               id="path73"
               inkscape:connector-curvature="0"
               style="fill:#272626" /></g></g></g><path
         clip-path="url(#SVGID_4_)"
         d="m 15.426,51.834 0,8.93 c 0,1.741 -1.425,3.166 -3.167,3.166 l -4.399,0 c -1.741,0 -3.166,-1.425 -3.166,-3.166 l 0,-8.93 c 0,-2.963 2.404,-5.365 5.367,-5.365 2.964,0 5.365,2.403 5.365,5.365"
         id="path75"
         inkscape:connector-curvature="0"
         style="fill:#ffd63d" /><path
         clip-path="url(#SVGID_4_)"
         d="m 15.047,52.072 0,8.299 c 0,1.618 -1.324,2.942 -2.943,2.942 l -4.088,0 c -1.618,0 -2.943,-1.324 -2.943,-2.942 l 0,-8.299 c 0,-2.754 2.235,-4.986 4.988,-4.986 2.755,0 4.986,2.232 4.986,4.986"
         id="path77"
         inkscape:connector-curvature="0"
         style="fill:#272626" /><path
         clip-path="url(#SVGID_4_)"
         d="m 29.985,16.256 c 0,2.006 -1.626,3.632 -3.632,3.632 -2.005,0 -3.631,-1.626 -3.631,-3.632 0,-2.006 1.626,-3.632 3.631,-3.632 2.006,10e-4 3.632,1.626 3.632,3.632"
         id="path79"
         inkscape:connector-curvature="0"
         style="fill:#ffffff" /><path
         clip-path="url(#SVGID_4_)"
         d="m 26.542,16.474 c 0,0.173 -0.14,0.314 -0.314,0.314 -0.173,0 -0.314,-0.141 -0.314,-0.314 0,-0.173 0.141,-0.314 0.314,-0.314 0.174,0 0.314,0.141 0.314,0.314"
         id="path81"
         inkscape:connector-curvature="0"
         style="fill:#ffffff" /><path
         clip-path="url(#SVGID_4_)"
         d="m 27.313,17.529 c 0,0.08 -0.065,0.145 -0.145,0.145 -0.08,0 -0.145,-0.065 -0.145,-0.145 0,-0.08 0.065,-0.145 0.145,-0.145 0.08,0 0.145,0.065 0.145,0.145"
         id="path83"
         inkscape:connector-curvature="0"
         style="fill:#ffffff" /><path
         clip-path="url(#SVGID_4_)"
         d="m 26.353,13.609 c 1.395,0 2.707,0.353 3.853,0.975 0.065,-0.286 0.101,-0.583 0.101,-0.888 0,-2.184 -1.77,-3.954 -3.954,-3.954 -2.184,0 -3.954,1.77 -3.954,3.954 0,0.305 0.036,0.602 0.101,0.888 1.146,-0.622 2.458,-0.975 3.853,-0.975"
         id="path85"
         inkscape:connector-curvature="0"
         style="fill:#ffd63d" /><g
         clip-path="url(#SVGID_4_)"
         id="g87"
         transform="translate(-0.63691737,0)"
         style="opacity:0.5"><g
           id="g89"><defs
             id="defs91"><rect
               id="SVGID_13_"
               x="35.389"
               y="12.565"
               width="7.816"
               height="8.1969995" /></defs><clipPath
             id="SVGID_14_"><use
               xlink:href="#SVGID_13_"
               overflow="visible"
               id="use95"
               style="overflow:visible"
               x="0"
               y="0"
               width="100%"
               height="100%" /></clipPath><g
             clip-path="url(#SVGID_14_)"
             id="g97"><defs
               id="defs99"><rect
                 id="SVGID_15_"
                 x="35.389"
                 y="12.565"
                 width="7.8169999"
                 height="8.1969995" /></defs><clipPath
               id="SVGID_16_"><use
                 xlink:href="#SVGID_15_"
                 overflow="visible"
                 id="use103"
                 style="overflow:visible"
                 x="0"
                 y="0"
                 width="100%"
                 height="100%" /></clipPath><path
               clip-path="url(#SVGID_16_)"
               d="m 43.205,16.664 c 0,-2.264 -1.75,-4.099 -3.908,-4.099 -2.159,0 -3.909,1.835 -3.909,4.099 0,2.264 1.75,4.099 3.909,4.099 2.158,0 3.908,-1.835 3.908,-4.099"
               id="path105"
               inkscape:connector-curvature="0"
               style="fill:#272626" /></g></g></g><path
         clip-path="url(#SVGID_4_)"
         d="m 35.665,16.256 c 0,2.006 1.626,3.632 3.632,3.632 2.005,0 3.631,-1.626 3.631,-3.632 0,-2.006 -1.626,-3.632 -3.631,-3.632 -2.006,10e-4 -3.632,1.626 -3.632,3.632"
         id="path107"
         inkscape:connector-curvature="0"
         transform="translate(-0.63691737,0)"
         style="fill:#ffffff" /><path
         clip-path="url(#SVGID_4_)"
         d="m 39.324,13.609 c -1.395,0 -2.707,0.353 -3.853,0.975 -0.065,-0.286 -0.102,-0.583 -0.102,-0.888 0,-2.184 1.771,-3.954 3.954,-3.954 2.183,0 3.954,1.77 3.954,3.954 0,0.305 -0.036,0.602 -0.101,0.888 -1.145,-0.622 -2.456,-0.975 -3.852,-0.975"
         id="path109"
         inkscape:connector-curvature="0"
         transform="translate(-0.63691737,0)"
         style="fill:#ffd63d" /><path
         clip-path="url(#SVGID_4_)"
         d="m 23.874,31.458 c 0,0 1.65,1.453 1.806,2.974 0.156,1.52 2.134,1.08 2.134,1.08 l 0.308,-4.31 -4.248,-0.44 0,0.696 z"
         id="path111"
         inkscape:connector-curvature="0"
         style="fill:#ffd63d" /><g
         clip-path="url(#SVGID_4_)"
         id="g113"
         style="opacity:0.05"><g
           id="g115"><defs
             id="defs117"><rect
               id="SVGID_17_"
               x="22.305"
               y="34.459999"
               width="38.157001"
               height="29.471001" /></defs><clipPath
             id="SVGID_18_"><use
               xlink:href="#SVGID_17_"
               overflow="visible"
               id="use121"
               style="overflow:visible"
               x="0"
               y="0"
               width="100%"
               height="100%" /></clipPath><g
             clip-path="url(#SVGID_18_)"
             id="g123"><defs
               id="defs125"><rect
                 id="SVGID_19_"
                 x="22.305"
                 y="34.459999"
                 width="38.157001"
                 height="29.471001" /></defs><clipPath
               id="SVGID_20_"><use
                 xlink:href="#SVGID_19_"
                 overflow="visible"
                 id="use129"
                 style="overflow:visible"
                 x="0"
                 y="0"
                 width="100%"
                 height="100%" /></clipPath><path
               clip-path="url(#SVGID_20_)"
               d="m 55.098,46.469 c -0.712,0 -1.392,0.142 -2.015,0.395 1.625,-1.493 2.062,-3.96 0.912,-5.95 -1.145,-1.984 -3.488,-2.841 -5.588,-2.193 -2.636,-1.825 -6.306,-3.762 -8.328,-4.261 0.002,0.143 0.006,0.287 0.006,0.431 0,12.057 -7.331,22.401 -17.78,26.818 l 27.571,0 c 0.405,1.283 1.608,2.221 3.021,2.221 l 4.398,0 c 1.741,0 3.166,-1.425 3.166,-3.166 l 0,-8.93 c 0.001,-2.963 -2.399,-5.365 -5.363,-5.365 m -5.368,5.365 0,1.448 -4.826,0 c 0.019,-0.23 0.032,-0.462 0.032,-0.702 0,-4.211 -0.664,-8.144 -1.812,-11.479 0.071,0.043 0.142,0.085 0.213,0.127 1.385,0.801 2.781,1.339 4.027,1.601 0.962,2.355 2.973,4.899 4.403,4.803 -1.239,0.983 -2.037,2.498 -2.037,4.202"
               id="path131"
               inkscape:connector-curvature="0"
               style="fill:#272626" /></g></g></g><path
         clip-path="url(#SVGID_4_)"
         d="m 60.083,52.072 0,8.299 c 0,1.618 -1.324,2.942 -2.943,2.942 l -4.088,0 c -1.618,0 -2.942,-1.324 -2.942,-2.942 l 0,-8.299 c 0,-2.754 2.234,-4.986 4.987,-4.986 2.754,0 4.986,2.232 4.986,4.986"
         id="path133"
         inkscape:connector-curvature="0"
         style="fill:#272626" /><path
         clip-path="url(#SVGID_4_)"
         d="m 39.107,16.474 c 0,0.173 0.142,0.314 0.314,0.314 0.172,0 0.312,-0.141 0.312,-0.314 0,-0.173 -0.14,-0.314 -0.312,-0.314 -0.172,0 -0.314,0.141 -0.314,0.314"
         id="path135"
         inkscape:connector-curvature="0"
         transform="translate(-0.63691737,0)"
         style="fill:#ffffff" /></g></g></svg>