<?xml version="1.0" encoding="UTF-8" standalone="no"?>
<!-- Created with Inkscape (http://www.inkscape.org/) -->

<svg
   xmlns:dc="http://purl.org/dc/elements/1.1/"
   xmlns:cc="http://creativecommons.org/ns#"
   xmlns:rdf="http://www.w3.org/1999/02/22-rdf-syntax-ns#"
   xmlns:svg="http://www.w3.org/2000/svg"
   xmlns="http://www.w3.org/2000/svg"
   xmlns:sodipodi="http://sodipodi.sourceforge.net/DTD/sodipodi-0.dtd"
   xmlns:inkscape="http://www.inkscape.org/namespaces/inkscape"
   width="191.91112mm"
   height="248.35579mm"
   viewBox="0 0 680.00002 880.00082"
   id="svg4229"
   version="1.1"
   inkscape:version="0.91 r13725"
   sodipodi:docname="robo.svg">
  <defs
     id="defs4231" />
  <sodipodi:namedview
     id="base"
     pagecolor="#ffffff"
     bordercolor="#666666"
     borderopacity="1.0"
     inkscape:pageopacity="0.0"
     inkscape:pageshadow="2"
     inkscape:zoom="0.7"
     inkscape:cx="431.52565"
     inkscape:cy="598.0289"
     inkscape:document-units="px"
     inkscape:current-layer="layer1"
     showgrid="true"
     inkscape:window-width="1920"
     inkscape:window-height="1021"
     inkscape:window-x="0"
     inkscape:window-y="0"
     inkscape:window-maximized="1"
     fit-margin-top="0"
     fit-margin-left="0"
     fit-margin-right="0"
     fit-margin-bottom="0">
    <inkscape:grid
       type="xygrid"
       id="grid4777"
       originx="-30.000001"
       originy="-2.2107221e-05" />
  </sodipodi:namedview>
  <metadata
     id="metadata4234">
    <rdf:RDF>
      <cc:Work
         rdf:about="">
        <dc:format>image/svg+xml</dc:format>
        <dc:type
           rdf:resource="http://purl.org/dc/dcmitype/StillImage" />
        <dc:title></dc:title>
      </cc:Work>
    </rdf:RDF>
  </metadata>
  <g
     inkscape:label="Layer 1"
     inkscape:groupmode="layer"
     id="layer1"
     transform="translate(-30,-172.36133)">
    <path
       style="opacity:1;fill:#666666;fill-opacity:1"
       d="m 80,172.36133 0,340 580,0 0,-340 -580,0 z m 175,70 a 65,65 0 0 1 65,65 65,65 0 0 1 -65,65 65,65 0 0 1 -65,-65 65,65 0 0 1 65,-65 z m 230,0 a 65,65 0 0 1 65,65 65,65 0 0 1 -65,65 65,65 0 0 1 -65,-65 65,65 0 0 1 65,-65 z"
       id="rect4779"
       inkscape:connector-curvature="0" />
    <rect
       style="opacity:1;fill:#4d4d4d;fill-opacity:1"
       id="rect4781"
       width="580"
       height="470"
       x="80"
       y="582.36218" />
    <rect
       style="opacity:1;fill:#808080;fill-opacity:1"
       id="rect4783"
       width="120"
       height="140"
       x="130"
       y="912.36218" />
    <rect
       style="opacity:1;fill:#808080;fill-opacity:1"
       id="rect4783-3"
       width="120"
       height="140"
       x="490"
       y="912.36218" />
    <rect
       style="opacity:1;fill:#999999;fill-opacity:1"
       id="rect4783-6"
       width="260"
       height="70"
       x="230"
       y="512.36218" />
    <rect
       style="opacity:1;fill:#808080;fill-opacity:1"
       id="rect4852"
       width="50"
       height="260"
       x="660"
       y="612.36218" />
    <rect
       style="opacity:1;fill:#808080;fill-opacity:1"
       id="rect4852-5"
       width="50"
       height="260"
       x="30"
       y="612.36218" />
  </g>
</svg>
