<?xml version="1.0" encoding="utf-8"?>
<svg version="1.1" class="object heart" xmlns="http://www.w3.org/2000/svg" xmlns:xlink="http://www.w3.org/1999/xlink" x="0px" y="0px"
	viewBox="0 -2 121 45" style="enable-background:new 0 0 121 45;" xml:space="preserve">
	<style type="text/css">
		.heart .st0{fill:#313334;}
		.heart .st1{fill:#666666;}
		.heart .st2{fill:none;stroke:#666666;stroke-width:0.2;}
		.heart .st3{fill:#2c2e30;}
	</style>
	<g class="group">
		<!-- clips -->
		<rect class="st3" x="0" 		y="11.5" 	width="10" 	height="18" 	rx="2"/>
		<rect class="st3" x="103" 	y="11.5"	width="10" 	height="18" 	rx="2"/>
		<!-- nipples -->
		<rect class="st0" x="15" 		y="37" 		width="3" 	height="6" 		rx="1.5"/>
		<rect class="st0" x="47" 		y="37" 		width="3" 	height="6" 		rx="1.5"/>
		<rect class="st0" x="63" 		y="37" 		width="3" 	height="6" 		rx="1.5"/>
		<rect class="st0" x="95" 		y="37" 		width="3" 	height="6" 		rx="1.5"/>
		<!-- front plate -->
		<rect class="st0" x="6.1" 	y="0" 		width="100.8" height="41" 	rx="0.5"/>
		<!-- sides -->
		<rect class="st0" x="3" 		y="0" 		width="3" 	height="41" 	rx="0.5"/>
		<rect class="st0" x="107" 	y="0" 		width="3" 	height="41" 	rx="0.5"/>
		<!-- blocks -->
		<rect class="st2" x="16.5" 	y="3" 		width="8" 	height="3" 		rx="0.3"/>
		<rect class="st2" x="16.5" 	y="35" 		width="8" 	height="3" 		rx="0.3"/>
		<rect class="st2" x="52.5" 	y="3" 		width="8" 	height="3" 		rx="0.3"/>
		<rect class="st2" x="48" 		y="35" 		width="17" 	height="3" 		rx="0.3"/>
		<rect class="st2" x="88.5" 	y="3" 		width="8" 	height="3" 		rx="0.3"/>
		<rect class="st2" x="88.5" 	y="35" 		width="8" 	height="3" 		rx="0.3"/>
		<!-- heart symbol -->
		<svg class="heart_symbol" preserveAspectRatio="none" x="44" y="8" width="25" height="25" viewBox="0 0 471.701 471.701">
			<g>
				<path class="st1" d="M433.601,67.001c-24.7-24.7-57.4-38.2-92.3-38.2s-67.7,13.6-92.4,38.3l-12.9,12.9l-13.1-13.1
					c-24.7-24.7-57.6-38.4-92.5-38.4c-34.8,0-67.6,13.6-92.2,38.2c-24.7,24.7-38.3,57.5-38.2,92.4c0,34.9,13.7,67.6,38.4,92.3
					l187.8,187.8c2.6,2.6,6.1,4,9.5,4c3.4,0,6.9-1.3,9.5-3.9l188.2-187.5c24.7-24.7,38.3-57.5,38.3-92.4
					C471.801,124.501,458.301,91.701,433.601,67.001z M414.401,232.701l-178.7,178l-178.3-178.3c-19.6-19.6-30.4-45.6-30.4-73.3
					s10.7-53.7,30.3-73.2c19.5-19.5,45.5-30.3,73.1-30.3c27.7,0,53.8,10.8,73.4,30.4l22.6,22.6c5.3,5.3,13.8,5.3,19.1,0l22.4-22.4
					c19.6-19.6,45.7-30.4,73.3-30.4c27.6,0,53.6,10.8,73.2,30.3c19.6,19.6,30.3,45.6,30.3,73.3
					C444.801,187.101,434.001,213.101,414.401,232.701z"/>
			</g>
		</svg>
	</g>
</svg>
